<?xml version="1.0" encoding="utf-8"?>
<!-- Generator: Adobe Illustrator 26.0.0, SVG Export Plug-In . SVG Version: 6.00 Build 0)  -->
<svg version="1.1" id="Layer_1" xmlns="http://www.w3.org/2000/svg" xmlns:xlink="http://www.w3.org/1999/xlink" x="0px" y="0px"
	 viewBox="0 0 243.7 186.4" style="enable-background:new 0 0 243.7 186.4;" xml:space="preserve">
<style type="text/css">
	.st0{fill:none;}
	.st1{fill:url(#SVGID_1_);}
	.st2{fill:url(#SVGID_00000141452340978159739220000012440672883176710308_);}
</style>
<g id="Layer_1_00000179603799997051487570000013127093541760978344_">
	<path class="st0" d="M93.5,44.4l-3.2,14.5c0,0-1.9,13.4-1.7,13.7c0.2,0.2-0.2,11.2-0.2,11.2"/>
</g>
<g id="Layer_2_00000008111287159504393980000005722690066093293722_">
	<g>
		<circle cx="116.9" cy="99.2" r="63.7"/>
		<g>
			
				<linearGradient id="SVGID_1_" gradientUnits="userSpaceOnUse" x1="172.216" y1="139.3875" x2="61.8773" y2="139.3875" gradientTransform="matrix(1 0 0 -1 0 229.243)">
				<stop  offset="0" style="stop-color:#3300D4"/>
				<stop  offset="0.1386" style="stop-color:#5700C6"/>
				<stop  offset="0.3364" style="stop-color:#8300B4"/>
				<stop  offset="0.5271" style="stop-color:#A600A6"/>
				<stop  offset="0.706" style="stop-color:#C0009C"/>
				<stop  offset="0.8685" style="stop-color:#CF0096"/>
				<stop  offset="1" style="stop-color:#D40094"/>
			</linearGradient>
			<path class="st1" d="M79.6,117.3c4.6-4.4,7.6-7.1,16.4-6.5s16.3,3.2,22.9,7.4c6.6,4.2,7,5.3,15.2,9.1c5.8,2.7,16.7,6,24.9,7.9
				c0.2-0.2,0.3-0.4,0.5-0.6c8.4-10.2,13.2-23.4,12.6-37.8c-1.3-27.9-23.6-50.6-51.5-52.4c-32.7-2.1-59.8,24.4-58.7,56.9
				c0.3,10.3,3.5,19.9,8.8,28C72.9,125.8,76.6,120.2,79.6,117.3z"/>
		</g>
		<g>
			
				<linearGradient id="SVGID_00000070818232957626220480000009650383160986151102_" gradientUnits="userSpaceOnUse" x1="156.5987" y1="94.8577" x2="73.471" y2="94.8577" gradientTransform="matrix(1 0 0 -1 0 229.243)">
				<stop  offset="0" style="stop-color:#3300D4"/>
				<stop  offset="0.1386" style="stop-color:#5700C6"/>
				<stop  offset="0.3364" style="stop-color:#8300B4"/>
				<stop  offset="0.5271" style="stop-color:#A600A6"/>
				<stop  offset="0.706" style="stop-color:#C0009C"/>
				<stop  offset="0.8685" style="stop-color:#CF0096"/>
				<stop  offset="1" style="stop-color:#D40094"/>
			</linearGradient>
			<path style="fill:url(#SVGID_00000070818232957626220480000009650383160986151102_);" d="M144.4,134.9
				c-13.2-2.9-20.3-9.3-27.9-13.9c-7.4-4.4-14.8-6.2-22.5-6.5c-7-0.3-9.3,2.9-12.8,7.2c-1.8,2.2-5,6.9-7.7,10.9
				c9.6,12.5,24.4,20.8,41.1,21.6c16.5,0.8,31.4-5.7,42-16.6C152.3,136.7,147.9,135.7,144.4,134.9z"/>
		</g>
	</g>
	<path d="M60.3,107l1.5,3.9c34.9-13.3,82.5-21.7,111.6-5.6l2-3.6C145.1,84.8,96,93.4,60.3,107z"/>
	<path d="M97.7,45.5l-4-1.1c-5.2,18.1-6.6,38.2-3.9,58.1c2.7,19.9,9.3,38.8,19.1,54.5l3.5-2.2C93.2,124,87.5,81.1,97.7,45.5z"/>
	<path d="M80.9,87.4c-6.6,0-13.4-1.5-18.5-4.9l2.3-3.5c9,6,24.7,5.1,31.8,0.4l3.8-2.5c21.1-14,36.4-24.1,55.1-24.1l0,4.1
		c-17.4,0-32.3,9.8-52.8,23.4L98.8,83C94.6,85.8,87.8,87.4,80.9,87.4z"/>
	<g>
		<g>
			<path d="M52.3,53c0.1,0.4,0.2,0.8,0.4,1.2c0.7-0.3,1.4-0.3,2.3-0.1c0.9,0.2,1.6,0.5,2.3,1.1c1.2,0.9,1.9,2,2.1,3.3
				c0.2,1.3,0,2.4-0.8,3.7c-0.6,0.9-1.3,1.6-2.2,2.1c0.1,0.3,0.3,0.6,0.4,0.9c-0.1,0.3-0.3,0.5-0.4,0.8c-0.2-0.5-0.4-0.9-0.6-1.4
				c-1.4,0.5-2.9,0.4-4.4-0.4c-1.3-0.7-2.2-1.8-2.5-3.2c-0.3-1.4,0-2.9,1-4.3c0.6-0.9,1.3-1.6,2.1-2.1c-0.1-0.2-0.2-0.5-0.2-0.7
				C51.9,53.6,52.1,53.3,52.3,53z M52.7,52.7c0.1,0,0.2,0,0.3-0.1c0.1,0.3,0.2,0.6,0.2,0.9c1.6-0.5,3.2-0.1,4.6,1.1
				c1.3,1,2,2.2,2.2,3.7s-0.1,2.8-1,4.1c-0.5,0.8-1.2,1.4-2.1,1.9c0.1,0.3,0.3,0.6,0.4,0.9c-0.3,0.5-0.6,1-0.9,1.5
				c0-0.1-0.1-0.2-0.1-0.2c0.2-0.4,0.5-0.8,0.7-1.3c-0.1-0.3-0.3-0.6-0.4-0.9c0.9-0.6,1.6-1.3,2.1-2c0.9-1.3,1.2-2.6,1-4
				s-0.9-2.6-2.2-3.6c-0.7-0.5-1.5-0.9-2.3-1.1c-0.8-0.2-1.6-0.1-2.3,0.1C52.9,53.4,52.8,53,52.7,52.7z M52.2,55.6
				c-0.7,0.1-1.4,0.6-1.9,1.4c-1.3,2-0.5,3.8,2.1,5.3c1.1,0.6,2,1,2.6,1c-0.1-0.2-0.2-0.4-0.3-0.6c0,0-0.1,0-0.1,0
				c-0.7-0.2-1.3-0.5-1.8-0.8c-2.5-1.5-3.2-3.1-2.1-4.8c0.3-0.5,0.8-0.9,1.4-1.2C52.3,55.7,52.2,55.6,52.2,55.6z M53.9,55.8
				c0.7,2.3,1.5,4.6,2.4,6.8c0.3,0,0.6-0.1,0.9-0.2c0,0,0,0.1,0,0.1c-0.4,0.2-0.8,0.3-1.1,0.4c-1-2.3-1.9-4.7-2.6-7.1
				c-0.1,0-0.3-0.1-0.6-0.1c0.8,2.7,1.8,5.3,2.9,7.8c0.8-0.1,1.5-0.6,2-1.4c0.5-0.8,0.6-1.6,0.3-2.4c-0.3-0.8-1.1-1.7-2.3-2.5
				C55.2,56.4,54.5,56,53.9,55.8z M52.3,56c-0.5,0.2-0.9,0.6-1.2,1.1c-1,1.6-0.4,3.1,2,4.5c0.6,0.4,1.1,0.6,1.6,0.8
				C53.8,60.3,53,58.1,52.3,56z"/>
			<path d="M54.3,50.5c1-1.3,2-2.5,3.1-3.6c-0.1,0.6-0.1,1.2-0.1,1.7c1.2,1,2.4,2.1,3.6,3.1c0-0.2,0-0.5,0-0.7
				c-1-0.9-2.1-1.9-3.1-2.8c0-0.5,0.1-0.9,0.1-1.4c0.1,0,0.1,0,0.2,0c0,0.4-0.1,0.9-0.1,1.3c1,0.9,1.9,1.7,2.9,2.6
				c-0.1-1.4-0.1-2.8-0.1-4.2c0-0.6-0.1-1-0.4-1.3c-0.1-0.1-0.4-0.2-0.7-0.1c-0.3,0.1-0.6,0.2-0.9,0.4c0,0,0,0-0.1-0.1
				c1.2-1.3,2.5-2.5,3.7-3.7c0,0,0,0,0,0.1c-0.7,0.9-1.1,2.3-1.1,4.1c0,0.6,0,1.3,0,1.9c2.2,0.4,4.3,1,6.4,1.6
				c0.5-0.1,1.1-0.3,1.7-0.4c-1.1,1-2.2,2.1-3.2,3.2c0.1-0.5,0.2-0.9,0.2-1.4c-1.4-0.4-2.9-0.8-4.4-1.1c0,0.7,0.1,1.5,0.1,2.2
				c0.6,0.5,1.1,1,1.7,1.5c0.7,0,1.4,0,2.1,0c-1,1.1-2,2.2-2.9,3.4c-0.1,0-0.2,0-0.3,0c0.9-1.1,1.8-2.2,2.7-3.2c-0.5,0-1.1,0-1.6,0
				c-0.6-0.5-1.2-1.1-1.8-1.6c-0.1-0.8-0.1-1.6-0.2-2.3c-0.1,0-0.3-0.1-0.4-0.1c0,0.9,0.1,1.8,0.2,2.7c0.6,0.5,1.2,1.1,1.8,1.6
				c0.4-0.1,0.9-0.2,1.4-0.2c-0.9,1-1.8,2-2.6,3.1c0-0.5,0-1,0.1-1.5c-2.1-1.8-4.2-3.5-6.3-5.3C55.3,50.2,54.8,50.4,54.3,50.5z
				 M63.2,42c-0.7,0.7-1.1,1.7-1.2,3c0,0.8-0.1,1.5-0.1,2.3c2.1,0.5,4.2,1.1,6.2,1.8c0.9-0.2,1.9-0.4,2.8-0.5
				c-1.4,1.2-2.7,2.4-3.9,3.8c-0.1,0-0.2,0-0.3,0c1.2-1.2,2.4-2.4,3.6-3.5c-0.7,0.1-1.4,0.3-2.1,0.4c-2.1-0.7-4.2-1.3-6.4-1.8
				c0-0.8,0-1.6,0.1-2.4c0.1-1.3,0.5-2.3,1.2-3.1C63.1,41.9,63.2,42,63.2,42z"/>
			<path d="M72.2,34.1c0,0.1,0,0.1,0,0.2c-0.2,0.9-0.2,1.8,0,2.7c-0.1-0.1-0.2-0.1-0.3-0.1c-0.6-0.3-1.2-0.4-1.6-0.3
				c-0.4,0.1-1.1,0.4-1.9,1.1c-0.4,0.3-0.8,0.7-1.4,1.1c0.8,0.9,1.5,1.9,2.3,2.8c0.2-0.1,0.3-0.2,0.5-0.4c-0.7-0.8-1.3-1.7-2-2.5
				c0.4-0.3,0.7-0.6,1.1-0.9c0.6-0.5,1.2-0.8,1.6-0.9c0.4-0.1,0.8-0.1,1.3,0.1c-0.1,0-0.2,0-0.2,0c-0.6,0-1,0.1-1.3,0.2
				c-0.2,0.1-0.6,0.3-1.1,0.7c-0.2,0.1-0.4,0.3-0.8,0.7c0,0-0.1,0.1-0.2,0.1c0.6,0.8,1.2,1.6,1.8,2.4c0.4-0.3,0.9-0.7,1.4-1
				c0-0.6,0.1-1.2,0.1-1.8c0.7,0.9,1.3,1.8,2,2.8c-0.6-0.1-1.1-0.3-1.7-0.4c-0.7,0.5-1.3,1-2,1.5c0.9,1.2,1.8,2.3,2.8,3.5
				c0.1-0.1,0.3-0.2,0.4-0.3c-0.8-1.1-1.7-2.1-2.5-3.2c0.5-0.4,1-0.8,1.6-1.2c0.1,0,0.2,0,0.3,0c-0.5,0.4-1.1,0.8-1.6,1.2
				c0.8,1,1.6,2,2.4,3c0.9-0.7,1.5-1.3,1.9-1.7c0.3-0.4,0.4-0.9,0.4-1.4c0-0.3,0-0.6,0-0.9c0,0,0-0.1,0-0.2c0.4,0.4,0.9,0.7,1.2,0.8
				c0.4,0.2,0.9,0.3,1.6,0.4c-2.6,1.7-5.2,3.6-7.6,5.7c0.1-0.5,0.3-1,0.4-1.6c-0.8-0.9-1.5-1.8-2.3-2.7c-0.4,0.4-0.6,0.8-0.8,1.2
				c-0.1,0-0.1,0-0.2,0c0.1-0.4,0.4-0.9,0.9-1.3c-0.1-0.1-0.2-0.2-0.2-0.3c-0.1,0.1-0.1,0.1-0.2,0.1c-0.5,0.4-0.8,0.9-0.9,1.6
				c-0.3-0.8-0.1-1.6,0.6-2.2c-0.7-0.9-1.4-1.7-2.2-2.6c-0.6,0.1-1.2,0.2-1.7,0.2C66.6,38.1,69.3,36,72.2,34.1z M78.9,41.7
				c0,0.3,0,0.6,0,0.8c-2.6,1.6-5,3.5-7.4,5.5c-0.1,0-0.2,0-0.2-0.1c2.4-2,4.8-3.9,7.4-5.5c0-0.2,0-0.4,0-0.6
				c-1.1-0.2-1.9-0.5-2.7-0.9c0.1,0,0.2,0,0.3-0.1c0.6,0.4,1.5,0.6,2.4,0.8C78.8,41.7,78.9,41.7,78.9,41.7z M72.1,38
				c0.7,0.9,1.3,1.9,2,2.8c-0.1,0-0.2,0-0.2,0c-0.7-0.9-1.3-1.9-2-2.8C71.9,38,72,38,72.1,38z M72.9,34.3
				C72.9,34.3,72.9,34.3,72.9,34.3c-0.2,1.2-0.2,2.1-0.1,2.8c-0.1,0-0.1,0-0.2,0c-0.1-0.9-0.1-1.8,0.1-2.8
				C72.8,34.2,72.8,34.2,72.9,34.3z"/>
			<path d="M74.6,33.6c0.9-1.4,2.1-2.5,3.7-3.4c1.2-0.6,2.3-0.9,3.3-0.9c1,0.1,1.6,0.4,1.9,1.1c0.3,0.6,0.2,1.2-0.1,1.8
				c-0.3,0.7-0.8,1.3-1.5,1.9c0.8,0.7,1.8,1.3,2.8,1.9c1,0.6,1.9,0.9,2.7,1.1c0,0-0.1,0.1-0.1,0.1c-0.6,0.6-1.2,1.3-1.7,2
				c0,0,0,0.1-0.1,0.1c0-0.1-0.1-0.1-0.1-0.2c-1.2-1.7-2.4-3-3.7-3.9c0,0,0,0-0.1,0c-0.3,0.3-0.7,0.7-1.2,1.1c0,0,0,0-0.1,0
				c0.5,0.9,1,1.7,1.4,2.6c0.7,0.2,1.3,0.4,2,0.6c-1.3,0.7-2.5,1.4-3.7,2.1c-0.1,0-0.1-0.1-0.2-0.1c1.1-0.7,2.3-1.3,3.4-2
				c-0.5-0.2-1.1-0.3-1.7-0.5c-0.5-0.9-1-1.9-1.6-2.8c0,0,0.1-0.1,0.1-0.1c0.6-0.4,1-0.7,1.3-1.1c-0.1,0-0.1-0.1-0.1-0.1
				c-0.1,0-0.1-0.1-0.2-0.2c0,0,0,0-0.1-0.1c-0.3,0.3-0.8,0.7-1.7,1.3c0,0,0,0-0.1,0.1c0.6,1,1.2,2,1.7,3.1c0.4,0.1,0.9,0.2,1.3,0.4
				c-1.1,0.6-2.1,1.2-3.2,1.9c0.1-0.5,0.3-0.9,0.4-1.4c-0.5-0.8-0.9-1.5-1.4-2.3c0,0,0,0-0.1,0c-0.3,0.2-0.5,0.5-0.7,0.7
				c0,0,0,0,0,0.1c0,0-0.1-0.1-0.1-0.1c0.2-0.2,0.3-0.4,0.4-0.5c0.1-0.1,0.2-0.2,0.3-0.3c0,0,0,0,0,0c-0.1-0.1-0.1-0.2-0.2-0.3
				c-0.3,0.2-0.6,0.5-1,0.9c0,0,0,0-0.1,0.1c0-0.1-0.1-0.2-0.1-0.5c0,0,0-0.1-0.1-0.4c0,0,0,0,0-0.1c0.2-0.1,0.4-0.2,0.5-0.3
				c0.1-0.1,0.3-0.2,0.4-0.2c-0.7-1.1-1.3-2.2-2-3.3C75.3,33.5,75,33.6,74.6,33.6C74.7,33.6,74.6,33.6,74.6,33.6z M77,32
				c0.7,1.2,1.4,2.5,2.1,3.7c0.1-0.1,0.3-0.2,0.4-0.3c-0.6-1.1-1.3-2.3-1.9-3.4c0.3-0.2,0.6-0.5,1-0.7c1.1-0.6,2-0.7,2.7-0.2
				c-0.6-0.1-1-0.1-1.4,0c-0.4,0.1-0.8,0.2-1.2,0.4c-0.3,0.2-0.6,0.4-0.8,0.6c0.6,1.1,1.2,2.2,1.8,3.3c0,0,0,0,0.1-0.1
				c0.9-0.7,1.6-1.4,1.9-2c0.3-0.6,0.4-1.2,0.1-1.8c-0.3-0.5-0.7-0.8-1.4-0.9c-0.7-0.1-1.4,0-2.1,0.4C77.7,31.2,77.3,31.6,77,32z
				 M83.1,34.1c0.8,0.8,1.9,1.5,3.1,2c0.8,0.4,1.7,0.6,2.6,0.7c-1,0.8-1.9,1.7-2.6,2.8c0,0,0,0,0,0.1c-0.1,0-0.1,0-0.2,0
				c0.6-1,1.5-1.9,2.4-2.7c-1.9-0.3-3.7-1.2-5.6-2.8c0,0-0.1-0.1-0.1-0.1c1.4-1.3,1.8-2.6,1.3-3.7c-0.2-0.5-0.7-0.9-1.4-1.2
				c0.8,0.2,1.3,0.6,1.6,1.3C84.8,31.6,84.4,32.8,83.1,34.1z"/>
			<path d="M95,23.9c-0.6,0.5-1,0.9-1.1,1.2c-0.2,0.5-0.2,1.1,0.1,1.9c0,0.2,0.1,0.3,0.1,0.5c0.7,2.2,1.3,4.4,2,6.7
				c-0.4,0.1-0.9,0.3-1.3,0.4c-2-1.9-4-3.7-6.2-5.5c0.5,1.3,1,2.7,1.5,4c0,0.1,0.1,0.2,0.1,0.3c0.2,0.3,0.3,0.7,0.5,1
				c0.3,0.5,0.7,0.7,1.1,0.8c0,0,0.1,0,0.1,0c-0.8,0-1.4-0.5-1.9-1.8c-0.1-0.2-0.2-0.5-0.3-0.7c-0.5-1.3-1-2.7-1.5-4
				c-0.3-0.2-0.5-0.4-0.8-0.6c0.6,1.4,1.1,2.8,1.7,4.2c0.5,1.3,1,2.2,1.3,2.5c0.3,0.3,0.9,0.5,1.7,0.4c0.3,0.1,0.6,0.3,0.9,0.4
				c-1.4,0.5-2.8,1-4.1,1.6c-0.1,0-0.1-0.1-0.2-0.1c1.3-0.5,2.5-1,3.8-1.5c-0.2-0.1-0.4-0.2-0.5-0.3c-1.2,0.4-2.4,0.9-3.6,1.4
				c0.5-0.5,0.8-0.9,0.9-1.4c0.1-0.4-0.1-1.1-0.4-2c-0.8-1.9-1.6-3.9-2.4-5.8c-0.5-0.1-1-0.2-1.5-0.3c1.5-0.6,3-1.2,4.5-1.7
				c-0.3,0.4-0.7,0.8-1,1.2c2.3,1.8,4.4,3.7,6.5,5.7c-0.1-0.3-0.2-0.6-0.3-0.9c-1.8-1.7-3.6-3.3-5.6-4.9c0.3-0.4,0.7-0.8,1-1.1
				c0.1,0,0.1,0.1,0.2,0.1c-0.3,0.3-0.6,0.7-0.9,1c1.8,1.5,3.5,3,5.1,4.5c-0.4-1.2-0.7-2.3-1.1-3.5c0-0.1-0.1-0.3-0.1-0.4
				c-0.3-0.9-0.5-1.4-0.8-1.7c-0.3-0.2-0.8-0.4-1.5-0.4C92.2,24.7,93.6,24.3,95,23.9z M95.5,24.4c0,0.1-0.1,0.2-0.1,0.3
				c-0.4,0.2-0.7,0.5-0.8,0.8c-0.1,0.3-0.1,0.7,0.1,1.3c0.7,2.6,1.5,5.2,2.2,7.8c-0.6,0.2-1.1,0.3-1.7,0.5c-0.1-0.1-0.1-0.1-0.2-0.2
				c0.5-0.2,1-0.3,1.6-0.5c-0.7-2.5-1.4-5-2.2-7.5c-0.2-0.7-0.2-1.2-0.1-1.6C94.5,24.9,94.9,24.6,95.5,24.4z"/>
			<path d="M101,23.6c1.3-1.1,2.9-1.8,4.7-2c1.3-0.2,2.5,0,3.4,0.4c0.9,0.4,1.3,1.1,1.4,1.9c0.1,1.1-0.6,1.8-1.9,2.3
				c0,0,0,0.1,0,0.1c0.1,0,0.3,0,0.5,0.1c0.6-0.2,1.1-0.5,1.5-0.9c0.3-0.4,0.5-1,0.5-1.6c0-0.7-0.4-1.4-1.2-1.9c0,0,0,0,0,0
				c0,0,0.1,0,0.1,0.1c0.8,0.5,1.3,1.1,1.3,2c0.1,1.1-0.6,2-1.9,2.5c0.6,0.2,1.1,0.5,1.4,0.9c0.3,0.4,0.5,0.9,0.6,1.4
				c0,0.8-0.2,1.4-0.8,1.9c-0.6,0.5-1.3,0.8-2.3,0.9c-1.9,0.2-3.9,0.5-5.8,0.8c0.3-0.4,0.6-0.7,1-1.1c-0.2-1.1-0.4-2.2-0.6-3.4
				c-0.3,0.1-0.7,0.2-1.2,0.3c0-0.1-0.1-0.1-0.1-0.2c0.5-0.1,0.9-0.2,1.2-0.3c0-0.1,0-0.3-0.1-0.4c-0.1,0-0.1,0-0.2,0
				c-0.3,0.1-0.7,0.1-1.2,0.3c0.1-0.3,0.2-0.5,0.2-0.8c0,0,0.1,0,0.1,0c0.2,0,0.4,0,0.5-0.1c0.2,0,0.3,0,0.4,0
				c-0.2-1-0.3-1.9-0.5-2.9C101.7,23.8,101.3,23.7,101,23.6z M111,27.1c0.6,0.4,1,1,1,1.9c0,0.9-0.3,1.6-0.9,2.3
				c-0.6,0.6-1.5,0.9-2.7,1.1c-1.8,0.2-3.7,0.4-5.5,0.8c-0.1-0.1-0.1-0.1-0.2-0.2c1.7-0.3,3.4-0.6,5.1-0.7c1.1-0.1,1.9-0.3,2.4-0.5
				c1.1-0.6,1.6-1.4,1.5-2.7C111.8,28.3,111.5,27.7,111,27.1C110.9,27.1,111,27.1,111,27.1z M103.8,23.1c0.2,1.2,0.3,2.3,0.5,3.5
				c0.1,0,0.1,0,0.1,0c0,0,0.1,0,0.2,0c0,0,0.1,0,0.1,0c-0.1-1.1-0.3-2.1-0.5-3.2c0.5-0.3,1-0.5,1.5-0.5c0.6-0.1,1,0,1.4,0.1
				c0.4,0.1,0.7,0.4,0.9,0.8c-0.1,0-0.2-0.1-0.3-0.1c-0.5-0.5-1.2-0.8-2.1-0.7c-0.5,0.1-0.9,0.2-1.2,0.5c0.1,1,0.3,2,0.4,3
				c0.1,0,0.2,0,0.4,0c1.1-0.1,1.9-0.4,2.5-0.8c0.5-0.4,0.8-0.9,0.7-1.6c0-0.6-0.3-1.1-0.8-1.4c-0.5-0.3-1.2-0.4-1.9-0.3
				C105,22.4,104.4,22.6,103.8,23.1z M104.4,27.2c0.2,1.4,0.4,2.9,0.6,4.3c0.1,0,0.3,0,0.4-0.1c-0.2-1.3-0.4-2.5-0.5-3.8
				c0.4-0.1,0.7-0.1,0.9-0.2c1-0.1,1.7-0.1,2.1,0c0.4,0.1,0.8,0.4,1.1,0.8c0,0-0.1,0-0.1,0c-0.3-0.3-0.7-0.6-1.1-0.6s-1.1-0.1-1.9,0
				c-0.2,0-0.5,0.1-0.7,0.1c0.2,1.2,0.3,2.4,0.5,3.6c0.1,0,0.2,0,0.3,0c0.4-0.1,0.8-0.1,1.2-0.2c1.5-0.3,2.2-1,2.1-2.4
				c-0.1-0.8-0.4-1.4-1-1.6c-0.6-0.3-1.6-0.3-3.1-0.1C105.1,27.1,104.8,27.1,104.4,27.2z"/>
			<path d="M121.6,21.5c-0.3,0.3-0.7,0.6-1,0.9c0.4,1.2,0.8,2.4,1.2,3.5c0.1,0,0.2-0.1,0.4-0.1c-0.3-1.1-0.7-2.1-1.1-3.2
				c0.3-0.3,0.7-0.6,1.1-0.9c0.1,0,0.2,0.1,0.2,0.1c-0.3,0.3-0.7,0.6-1,0.8c0.4,1,0.7,2,1,3c0.1,0,0.1-0.1,0.1-0.1
				c0.1-0.1,0.2-0.1,0.3-0.2c0.2-0.1,0.3-0.2,0.4-0.2c0.1,0.6,0.3,1.2,0.5,1.7c-0.2,0-0.3,0-0.4-0.1c-0.6-0.1-1,0-1.2,0.1
				c0.4,1.3,0.8,2.7,1.1,4c0.4,0.3,0.7,0.7,1.1,1.1c-1.4-0.2-2.7-0.3-4.1-0.4c0.4-0.3,0.8-0.5,1.2-0.8c-0.2-0.8-0.5-1.6-0.7-2.4
				c-0.7,0.5-1.2,1.1-1.5,1.6c-0.1,0-0.1,0-0.2-0.1c0.4-0.5,0.9-1,1.6-1.6c0,0,0,0,0.1-0.1c0-0.1-0.1-0.2-0.1-0.4
				c-0.7,0.5-1.3,1-1.8,1.7c0-0.1-0.1-0.2-0.1-0.2c-0.3-0.4-0.6-1-1.1-1.5c0,0-0.1-0.1-0.1-0.1c-0.5,0.9-0.7,1.6-0.7,2.2
				c0,0.3,0,0.6,0.2,0.8c0.1,0.2,0.4,0.6,0.8,1.2c0,0,0.1,0.1,0.2,0.2c-1.5-0.1-2.9-0.1-4.4,0c-0.1-0.1-0.1-0.1-0.2-0.2
				c1.4,0,2.8,0,4.1,0c0-0.1-0.1-0.1-0.1-0.2c-0.3-0.4-0.6-0.8-0.7-1c-0.1-0.2-0.2-0.5-0.2-0.8c0-0.5,0.2-1.3,0.8-2.4
				c-0.1-0.1-0.2-0.2-0.4-0.4c-0.1,0.2-0.2,0.4-0.3,0.7c-0.1,0.3-0.2,0.5-0.3,0.8c-0.2,0.4-0.2,0.8-0.2,1.1c0,0.3,0,0.5,0.1,0.7
				c0.1,0.2,0.3,0.5,0.6,0.8c0,0,0.1,0.1,0.1,0.1c-1.4,0-2.7,0-4.1,0c0.8-0.4,1.4-0.9,1.8-1.6c0.5-0.7,0.9-1.7,1.4-3
				c0,0,0-0.1,0-0.1c-0.3-0.2-0.8-0.4-1.3-0.4c0.3-0.4,0.6-0.9,0.8-1.3c0.1,0.1,0.1,0.1,0.1,0.1c0.1,0.1,0.3,0.2,0.4,0.3
				c0.1,0.1,0.3,0.2,0.5,0.4c0.1-0.1,0.1-0.2,0.2-0.3c0,0-0.1,0-0.1-0.1c-0.3-0.2-0.5-0.4-0.7-0.6c0,0,0,0-0.1-0.1
				c0-0.1,0.1-0.1,0.1-0.2c0.3,0.2,0.6,0.4,0.9,0.6c0.4-1,0.9-1.9,1.3-2.9c-0.3-0.3-0.6-0.6-1-0.9C118.7,21.3,120.1,21.4,121.6,21.5
				z M118.8,23c-0.5,1.1-1.1,2.2-1.6,3.3c0.4,0.4,0.8,0.8,1.1,1.3c0.1,0.2,0.2,0.3,0.4,0.5c0,0,0,0,0.1,0.1c0.1,0,0.1-0.1,0.1-0.1
				c0,0,0.1-0.1,0.1-0.1c0,0,0,0,0.1-0.1c-0.4-0.6-0.8-1.1-1.4-1.6c0.4-0.9,0.8-1.7,1.3-2.6C118.9,23.4,118.8,23.2,118.8,23z
				 M119.1,23.9c-0.4,0.7-0.7,1.5-1.1,2.2c0,0,0.1,0.1,0.1,0.1c0.1,0.1,0.2,0.2,0.3,0.4c0.2,0.2,0.4,0.5,0.7,0.9c0,0,0,0.1,0.1,0.1
				c0.3-0.3,0.6-0.5,0.9-0.8C119.8,25.9,119.5,24.9,119.1,23.9z M123.9,25.6c0.1,0.5,0.3,1.2,0.7,2c-0.1,0-0.2,0-0.2,0
				c-0.2,0-0.5-0.1-0.7-0.1c-0.3-0.1-0.5-0.1-0.7-0.1c0,0-0.1,0-0.2,0c0.4,1.2,0.7,2.4,1,3.6c0.5,0.6,1.1,1.2,1.6,1.8
				c-1.6-0.2-3.1-0.4-4.7-0.5c0-0.1-0.1-0.1-0.1-0.2c1.4,0.1,2.9,0.3,4.3,0.5c-0.4-0.5-0.9-1-1.3-1.4c-0.3-1.3-0.7-2.6-1.1-3.8
				c0.2,0,0.4,0,0.7,0c0.3,0,0.7,0.1,1,0.2c0-0.1-0.1-0.1-0.1-0.2c-0.3-0.7-0.5-1.2-0.6-1.8C123.7,25.5,123.8,25.6,123.9,25.6z"/>
			<path d="M136,24.1c-0.4,0.3-0.8,0.6-1.1,0.9c-0.6,0.7-0.9,1.1-1.1,1.2c0,0,0,0-0.1,0c0-0.1,0-0.1,0-0.1c0-0.5-0.1-0.9-0.2-1.1
				c-0.1-0.2-0.2-0.4-0.4-0.6c-0.4-0.5-1-0.9-1.7-1c-0.7-0.1-1.2-0.1-1.7,0.1c-0.5,0.2-0.8,0.6-0.9,1c-0.2,0.9,0.5,1.6,1.9,2.2
				c0.5,0.2,0.9,0.4,1.4,0.6c2,0.9,2.7,2.2,2.3,3.7c-0.2,0.8-0.8,1.4-1.6,1.8c-0.8,0.4-1.7,0.5-2.7,0.3c-0.6-0.1-1.3-0.4-2-0.7
				c-0.3-0.1-0.6-0.3-0.9-0.4c-0.4-0.2-0.7-0.2-0.9-0.3c-0.3-0.1-0.7,0-1.1,0.1c0,0,0-0.1,0-0.1c0.8-0.9,1.5-1.7,1.9-2.5
				c0,0,0.1,0,0.1,0.1c0,0.8,0.2,1.5,0.7,2.1c0.5,0.6,1.2,0.9,2.1,1.1c0.7,0.2,1.3,0.1,1.8-0.1c0.5-0.2,0.8-0.6,1-1.1
				c0.2-0.6,0-1.2-0.5-1.8c-0.4-0.4-1.2-0.9-2.6-1.4c-1-0.4-1.8-0.9-2.2-1.4c-0.4-0.5-0.6-1.2-0.4-2c0.1-0.8,0.6-1.4,1.4-1.8
				c0.8-0.4,1.8-0.5,2.9-0.2c0.7,0.1,1.5,0.4,2.4,0.9c0.4,0.2,0.7,0.3,0.9,0.4c0.3,0.1,0.6,0.1,1,0C136,24.1,136,24.1,136,24.1z
				 M134.7,28.9c0.6,0.7,0.8,1.6,0.5,2.5c-0.3,1-0.9,1.7-1.9,2.1s-2,0.6-3.1,0.3c-0.6-0.1-1.1-0.3-1.5-0.5c-0.4-0.2-0.8-0.4-1.2-0.5
				c-0.3-0.1-0.6-0.2-0.9-0.3c-0.3,0-0.6,0-0.9,0c0-0.1,0-0.2-0.1-0.2c0.3-0.1,0.6-0.1,0.9,0c0.3,0,0.7,0.2,1.1,0.3
				c0.4,0.2,0.8,0.3,1.2,0.5c0.5,0.2,1,0.4,1.5,0.5c1.1,0.2,2,0.1,3-0.3c0.9-0.4,1.5-1.1,1.8-2C135.3,30.5,135.2,29.7,134.7,28.9
				C134.7,29,134.7,29,134.7,28.9z M127.5,27.1c0.1,0.1,0.2,0.1,0.3,0.2c0.1,0.3,0.6,0.7,1.5,1.1c0.4,0.2,0.9,0.4,1.3,0.6
				c0.9,0.4,1.5,0.7,1.7,1c0.3,0.2,0.4,0.5,0.5,0.8c0,0,0,0-0.1,0c-0.2-0.3-0.4-0.6-0.7-0.8c-0.3-0.2-0.8-0.5-1.6-0.8
				c-1.2-0.5-2-0.9-2.3-1.2C127.8,27.7,127.6,27.4,127.5,27.1z M128.2,29.8c0,1,0.5,1.7,1.2,2.3c0,0,0,0,0,0.1
				c-0.9-0.5-1.4-1.3-1.5-2.3C128,29.8,128.1,29.8,128.2,29.8z M133.5,25.4c-0.5-0.8-1.2-1.2-1.9-1.4c-0.5-0.1-0.9-0.1-1.2,0.1
				c-0.3,0.2-0.6,0.4-0.6,0.8c-0.1,0.4,0.1,0.8,0.7,1.4c0,0,0,0,0.1,0c0,0,0,0-0.1,0c-0.7-0.5-1-1-0.9-1.6c0.1-0.4,0.3-0.7,0.7-0.9
				c0.4-0.2,0.9-0.2,1.4-0.1c0.5,0.1,1,0.3,1.3,0.6C133.2,24.7,133.5,25,133.5,25.4C133.5,25.4,133.5,25.4,133.5,25.4z M136.5,24.6
				c0,0-0.1,0.1-0.1,0.1c-0.3,0.3-0.6,0.6-0.9,0.8c-0.6,0.6-1,1-1,1.1c0,0,0,0-0.1,0c-0.1,0-0.1-0.1-0.2-0.1c0,0,0,0,0-0.1
				c0.3-0.3,0.6-0.7,1.1-1.1c0.3-0.3,0.6-0.6,0.9-0.8c0,0,0,0,0.1,0C136.4,24.5,136.4,24.5,136.5,24.6z"/>
			<path d="M137.9,24.5c1.4,0.4,2.8,0.9,4.2,1.4c-0.5,0.2-1.1,0.4-1.6,0.5c-0.5,1.5-1,3-1.6,4.5c0.2-0.1,0.4-0.2,0.6-0.3
				c0.5-1.3,0.9-2.6,1.4-4c0.4-0.2,0.9-0.3,1.3-0.5c0,0.1,0,0.1,0.1,0.2c-0.4,0.1-0.8,0.3-1.2,0.4c-0.4,1.2-0.9,2.4-1.3,3.6
				c1.2-0.6,2.4-1.2,3.7-1.7c0.5-0.2,0.9-0.5,1-0.8c0.1-0.2,0-0.4-0.1-0.7c-0.2-0.3-0.4-0.5-0.7-0.7c0,0,0,0,0-0.1
				c1.6,0.6,3.1,1.3,4.6,2c0,0,0,0,0,0.1c-1.1-0.3-2.5-0.1-4.1,0.6c-0.6,0.2-1.1,0.5-1.7,0.7c0.3,2.2,0.6,4.3,0.8,6.4
				c0.3,0.4,0.6,0.9,0.9,1.4c-1.3-0.6-2.6-1.2-3.9-1.7c0.4-0.1,0.9-0.2,1.3-0.3c-0.1-1.5-0.3-2.9-0.5-4.4c-0.6,0.3-1.3,0.6-1.9,1
				c-0.2,0.7-0.5,1.4-0.8,2.1c0.3,0.6,0.5,1.2,0.7,1.9c-1.3-0.5-2.6-0.9-4-1.3c0-0.1-0.1-0.2-0.1-0.3c1.3,0.4,2.5,0.8,3.7,1.2
				c-0.2-0.5-0.4-1-0.6-1.5c0.3-0.8,0.5-1.5,0.8-2.3c0.7-0.4,1.3-0.7,2-1.1c0-0.1,0-0.3-0.1-0.4c-0.8,0.4-1.6,0.8-2.4,1.2
				c-0.3,0.8-0.5,1.5-0.8,2.3c0.2,0.4,0.4,0.8,0.7,1.1c-1.2-0.4-2.4-0.8-3.6-1.2c0.4-0.2,0.9-0.4,1.4-0.5c0.8-2.6,1.7-5.2,2.5-7.9
				C138.5,25.4,138.2,25,137.9,24.5z M148.5,29.4c-0.9-0.3-1.9-0.3-3.1,0.1c-0.7,0.3-1.4,0.5-2.1,0.8c0.3,2.1,0.5,4.3,0.6,6.4
				c0.5,0.8,1,1.6,1.5,2.4c-1.6-0.8-3.2-1.5-4.8-2.1c0-0.1-0.1-0.2-0.1-0.3c1.5,0.6,2.9,1.2,4.4,1.9c-0.4-0.6-0.7-1.2-1.1-1.8
				c-0.1-2.2-0.3-4.4-0.7-6.6c0.7-0.3,1.5-0.6,2.2-0.9c1.2-0.4,2.2-0.5,3.2-0.1C148.5,29.2,148.5,29.3,148.5,29.4z"/>
			<path d="M159.1,34.5c-0.1,0-0.1,0-0.2,0c-0.9,0.2-1.8,0.5-2.5,1c0-0.1,0-0.2,0-0.3c0-0.7,0-1.3-0.3-1.6c-0.2-0.4-0.8-0.8-1.7-1.3
				c-0.4-0.2-0.9-0.5-1.5-0.8c-0.6,1.1-1.2,2.1-1.8,3.2c0.2,0.1,0.3,0.2,0.5,0.3c0.5-0.9,1.1-1.9,1.6-2.8c0.4,0.2,0.8,0.4,1.2,0.6
				c0.7,0.4,1.2,0.8,1.4,1.1c0.2,0.3,0.4,0.7,0.4,1.2c0-0.1-0.1-0.2-0.1-0.2c-0.2-0.6-0.5-0.9-0.6-1.1c-0.2-0.2-0.5-0.4-1.1-0.8
				c-0.2-0.1-0.5-0.3-0.9-0.5c-0.1,0-0.1-0.1-0.2-0.1c-0.5,0.9-1,1.7-1.5,2.6c0.5,0.3,1,0.6,1.4,0.8c0.6-0.2,1.2-0.4,1.7-0.6
				c-0.6,1-1.2,1.9-1.8,2.9c-0.1-0.6-0.2-1.1-0.3-1.7c-0.7-0.4-1.4-0.8-2.1-1.2c-0.7,1.3-1.4,2.6-2.1,3.9c0.2,0.1,0.3,0.2,0.5,0.3
				c0.7-1.2,1.3-2.3,2-3.5c0.6,0.3,1.1,0.6,1.7,1c0,0.1,0.1,0.2,0.1,0.3c-0.6-0.3-1.1-0.7-1.7-1c-0.6,1.1-1.3,2.2-1.9,3.3
				c1,0.6,1.7,0.9,2.2,1.1c0.5,0.1,1,0.1,1.5-0.1c0.3-0.1,0.5-0.2,0.8-0.4c0,0,0.1,0,0.2-0.1c-0.2,0.6-0.3,1.1-0.3,1.5
				c0,0.4,0.1,0.9,0.2,1.6c-2.6-1.8-5.3-3.4-8.1-4.8c0.5-0.1,1-0.2,1.6-0.2c0.5-1,1.1-2.1,1.6-3.1c-0.5-0.2-0.9-0.3-1.4-0.2
				c0-0.1,0-0.1,0-0.2c0.4,0,0.9,0,1.5,0.3c0.1-0.1,0.1-0.2,0.2-0.3c-0.1-0.1-0.1-0.1-0.2-0.1c-0.5-0.3-1.1-0.3-1.8-0.2
				c0.6-0.6,1.4-0.7,2.2-0.3c0.5-1,1-2,1.6-3c-0.3-0.5-0.6-1-0.9-1.5C153.3,30.9,156.2,32.6,159.1,34.5z M154.6,43.7
				c-0.3,0.1-0.5,0.2-0.8,0.3c-2.5-1.7-5.1-3.3-7.8-4.7c0-0.1,0-0.2,0-0.2c2.7,1.4,5.3,2.9,7.8,4.7c0.2-0.1,0.3-0.2,0.5-0.2
				c-0.3-1-0.3-2-0.2-2.8c0.1,0.1,0.1,0.2,0.2,0.2c-0.1,0.7,0,1.6,0.2,2.6C154.6,43.6,154.6,43.6,154.6,43.7z M155.4,35.9
				c-0.6,1-1.2,2-1.9,2.9c0-0.1-0.1-0.1-0.1-0.2c0.6-1,1.2-2,1.9-3C155.3,35.8,155.3,35.9,155.4,35.9z M159.2,35.3
				C159.1,35.3,159.1,35.3,159.2,35.3c-1.2,0.3-2,0.6-2.6,1c0-0.1,0-0.1,0-0.2c0.8-0.5,1.7-0.8,2.6-1
				C159.1,35.1,159.1,35.2,159.2,35.3z"/>
			<path d="M169,42.6c-0.1,0-0.2,0-0.2,0c-0.4,0.1-0.8,0.1-1.1,0.2c-0.4,0.1-0.8,0.3-1.3,0.5c0,0,0,0,0,0c0,0,0-0.1,0-0.1
				c0,0,0-0.1,0-0.1c0.3-0.6,0.3-1.1,0.2-1.5c-0.1-0.4-0.4-0.8-1-1.3c-0.2-0.2-0.4-0.4-0.7-0.5c0,0-0.1,0-0.1-0.1
				c-1.8,2.2-3.6,4.4-5.5,6.6c0.1,0.4,0.1,0.9,0.2,1.3c-1-0.9-2-1.7-3-2.5c0.5,0,1,0,1.5,0c1.6-2,3.2-4.1,4.9-6.2
				c-0.2-0.1-0.4-0.3-0.5-0.4c-0.5-0.4-1-0.6-1.3-0.6c-0.3,0-0.7,0.2-1.1,0.6c-0.1,0-0.1-0.1-0.2-0.1c0.4-0.5,0.8-0.7,1.2-0.7
				c0.4,0,0.9,0.2,1.5,0.7c0.1,0.1,0.3,0.2,0.4,0.4c0,0,0.1,0,0.1,0.1c0.1-0.1,0.2-0.2,0.2-0.3c-0.2-0.2-0.5-0.4-0.7-0.6
				c-0.7-0.5-1.2-0.8-1.7-0.7c-0.5,0-0.9,0.3-1.3,0.8c0,0-0.1,0-0.1-0.1c0.2-0.7,0.3-1.7,0.4-2.7c0,0,0-0.1,0-0.1
				C163.1,37.3,166.1,39.8,169,42.6z M166.4,42.5c-0.2-0.5-0.5-1-1-1.5c-0.1-0.1-0.2-0.2-0.4-0.3c-1.7,2-3.4,4-5.1,6.1
				c0,0.7,0,1.3,0.1,2c-1.1-1-2.2-1.9-3.3-2.8c0-0.1,0-0.2,0-0.3c1.1,0.8,2.1,1.7,3.1,2.6c0-0.6,0-1.1-0.1-1.7
				c1.8-2.1,3.5-4.2,5.3-6.3c0.1,0.1,0.3,0.2,0.4,0.3c0.5,0.4,0.8,0.7,0.9,1C166.4,41.9,166.4,42.2,166.4,42.5z M169.1,43.3
				c-0.6,0-1.5,0.2-2.6,0.7c0,0-0.1,0-0.1,0c0-0.1,0-0.2,0-0.3c0,0,0,0,0.1,0c1.1-0.5,1.9-0.7,2.6-0.7c0,0,0,0,0.1,0
				C169.1,43.2,169.1,43.3,169.1,43.3z"/>
			<path d="M173.1,46.7c1.1,1.2,2.1,2.4,3.1,3.7c-0.6-0.1-1.1-0.3-1.7-0.4c-2.1,1.8-4.2,3.5-6.3,5.2c0,0.5,0,0.9,0.1,1.4
				c-0.9-1.1-1.8-2.1-2.7-3.2c0.5,0.1,1,0.2,1.5,0.3c2.1-1.8,4.1-3.6,6.2-5.4C173.2,47.9,173.1,47.3,173.1,46.7z M176.1,51.1
				c-0.4-0.1-0.8-0.2-1.3-0.3c-2.1,1.7-4.1,3.4-6.2,5.1c-0.1,0.7-0.1,1.4-0.2,2.1c-0.9-1.2-1.9-2.4-2.9-3.5c0-0.1,0-0.2,0-0.3
				c0.9,1.1,1.9,2.2,2.7,3.3c0.1-0.6,0.1-1.1,0.2-1.7c2.1-1.7,4.2-3.5,6.3-5.2c0.5,0.1,0.9,0.2,1.4,0.3
				C176.1,50.9,176.1,51,176.1,51.1z"/>
			<path d="M177.1,51.6c1,1.3,2,2.7,2.9,4c-0.6-0.2-1.1-0.4-1.7-0.6c-2.3,1.6-4.6,3.2-6.9,4.8c0,0,0,0,0,0.1
				c0.1,0.1,0.1,0.2,0.2,0.3c0,0,0,0,0,0.1c2.3-1.6,4.6-3.2,6.9-4.8c0.4,0.1,0.9,0.3,1.3,0.4c0,0.1,0,0.1-0.1,0.2
				c-0.4-0.1-0.8-0.3-1.2-0.4c-2.3,1.6-4.5,3.1-6.8,4.7c0.1,0.2,0.3,0.5,0.4,0.7c0.5,0.8,1.1,1.3,1.7,1.6c0.6,0.2,1.3,0.2,2.1-0.1
				c-0.9,1.3-1.5,2.3-1.6,3.1c-1.6-2.8-3.4-5.5-5.3-8c0.5,0.1,1,0.3,1.5,0.5c2.2-1.6,4.4-3.3,6.6-4.9
				C177.2,52.8,177.2,52.2,177.1,51.6z M174.9,66.6c-0.3,0-0.5,0-0.8,0c-1.6-2.8-3.3-5.5-5.2-8c0-0.1,0-0.2,0-0.3
				c1.9,2.5,3.7,5.2,5.3,8.1c0.2,0,0.4,0,0.6,0c0.3-0.9,0.7-1.8,1.2-2.6c0,0,0,0,0.1-0.1c0,0.1,0,0.2,0.1,0.3c0,0-0.1,0.1-0.1,0.1
				c-0.5,0.8-0.8,1.6-1.1,2.4C174.9,66.5,174.9,66.5,174.9,66.6z"/>
		</g>
	</g>
</g>
</svg>
