<?xml version="1.0" encoding="utf-8"?>
<!-- Generator: Adobe Illustrator 26.0.0, SVG Export Plug-In . SVG Version: 6.00 Build 0)  -->
<svg version="1.1" id="Layer_1" xmlns="http://www.w3.org/2000/svg" xmlns:xlink="http://www.w3.org/1999/xlink" x="0px" y="0px"
	 viewBox="0 0 129.94 118.56" style="enable-background:new 0 0 129.94 118.56;" xml:space="preserve">
<style type="text/css">
	.st0{stroke:#000000;}
	.st1{stroke:#000000;stroke-miterlimit:10;}
	.st2{font-family:'MyriadPro-Regular';}
	.st3{font-size:26.6008px;}
	.st4{fill:none;stroke:#000000;stroke-width:6;stroke-miterlimit:10;}
</style>
<g>
	<g>
		<path class="st0" d="M49.11,57.1c3.49,0,3.98-1.9,3.98-3.66c0-1.36-0.19-2.73-0.38-4.1c-0.21-1.38-0.4-2.75-0.4-4.1
			c0-4.53,2.97-6.47,7.16-6.47h1.02v2.72h-0.88c-2.9,0-3.92,1.56-3.92,4.25c0,1.15,0.18,2.32,0.37,3.5
			c0.18,1.19,0.37,2.42,0.37,3.73c0.04,3.16-1.35,4.73-3.55,5.31v0.1c2.2,0.57,3.59,2.23,3.55,5.38c0,1.31-0.18,2.55-0.37,3.74
			c-0.18,1.22-0.37,2.37-0.37,3.53c0,2.77,1.17,4.29,3.93,4.29h0.87v2.71h-1.03c-4.08,0-7.15-1.79-7.15-6.75
			c0-1.33,0.19-2.68,0.4-4.02c0.19-1.35,0.38-2.68,0.38-3.98c0-1.56-0.49-3.67-3.98-3.68V57.1z"/>
	</g>
</g>
<g>
	<g>
		<path class="st1" d="M89.4,59.04c-3.49,0-3.98,1.9-3.98,3.66c0,1.36,0.19,2.73,0.38,4.1c0.21,1.38,0.4,2.75,0.4,4.1
			c0,4.53-2.97,6.47-7.16,6.47h-1.02v-2.72h0.88c2.9,0,3.92-1.56,3.92-4.25c0-1.15-0.18-2.32-0.37-3.5
			c-0.18-1.19-0.37-2.42-0.37-3.73c-0.04-3.16,1.35-4.73,3.55-5.31v-0.1c-2.2-0.57-3.59-2.23-3.55-5.38c0-1.31,0.18-2.55,0.37-3.74
			c0.18-1.22,0.37-2.37,0.37-3.53c0-2.77-1.17-4.29-3.93-4.29h-0.87v-2.71h1.03c4.08,0,7.15,1.79,7.15,6.75
			c0,1.33-0.19,2.68-0.4,4.02c-0.19,1.35-0.38,2.68-0.38,3.98c0,1.56,0.49,3.67,3.98,3.68V59.04z"/>
	</g>
</g>
<text transform="matrix(1 0 0 1 61.7569 52.2039)" class="st1 st2 st3">.</text>
<text transform="matrix(1 0 0 1 73.8541 52.1493)" class="st0 st2 st3">.</text>
<rect x="31.14" y="20.91" transform="matrix(0.7071 0.7071 -0.7071 0.7071 61.8755 -31.6203)" class="st4" width="75.94" height="75.94"/>
</svg>
