<?xml version="1.0" encoding="utf-8"?>
<!-- Generator: Adobe Illustrator 26.0.0, SVG Export Plug-In . SVG Version: 6.00 Build 0)  -->
<svg version="1.1" xmlns="http://www.w3.org/2000/svg" xmlns:xlink="http://www.w3.org/1999/xlink" x="0px" y="0px"
	 viewBox="0 0 285.69 446.31" style="enable-background:new 0 0 285.69 446.31;" xml:space="preserve">
<style type="text/css">
	.st0{fill:none;}
	.st1{fill:url(#SVGID_1_);}
	.st2{fill:url(#SVGID_00000170957126012490701360000008089002830894063550_);}
</style>
<g id="Layer_1">
	<path class="st0" d="M107.07,76.86l-3.9,17.49c0,0-2.31,16.19-2.02,16.48c0.29,0.29-0.29,13.45-0.29,13.45"/>
</g>
<g id="Layer_2">
	<g>
		<circle cx="135.28" cy="142.98" r="76.82"/>
		<g>
			<linearGradient id="SVGID_1_" gradientUnits="userSpaceOnUse" x1="201.9398" y1="131.6764" x2="68.9398" y2="131.6764">
				<stop  offset="0" style="stop-color:#3300D4"/>
				<stop  offset="0.1386" style="stop-color:#5700C6"/>
				<stop  offset="0.3364" style="stop-color:#8300B4"/>
				<stop  offset="0.5271" style="stop-color:#A600A6"/>
				<stop  offset="0.706" style="stop-color:#C0009C"/>
				<stop  offset="0.8685" style="stop-color:#CF0096"/>
				<stop  offset="1" style="stop-color:#D40094"/>
			</linearGradient>
			<path class="st1" d="M90.3,164.76c5.49-5.35,9.11-8.53,19.81-7.81s19.66,3.9,27.61,8.96c7.95,5.06,8.39,6.36,18.36,10.99
				c7.03,3.26,20.1,7.24,30.03,9.56c0.21-0.24,0.41-0.49,0.6-0.73c10.13-12.26,15.95-28.21,15.14-45.53
				c-1.57-33.61-28.5-61.03-62.08-63.16c-39.43-2.51-72.06,29.37-70.81,68.53c0.39,12.38,4.25,23.94,10.6,33.77
				C82.23,175.06,86.7,168.26,90.3,164.76z"/>
		</g>
		<g>
			
				<linearGradient id="SVGID_00000181789924966757352730000005324944376573904019_" gradientUnits="userSpaceOnUse" x1="183.0946" y1="185.3637" x2="82.9042" y2="185.3637">
				<stop  offset="0" style="stop-color:#3300D4"/>
				<stop  offset="0.1386" style="stop-color:#5700C6"/>
				<stop  offset="0.3364" style="stop-color:#8300B4"/>
				<stop  offset="0.5271" style="stop-color:#A600A6"/>
				<stop  offset="0.706" style="stop-color:#C0009C"/>
				<stop  offset="0.8685" style="stop-color:#CF0096"/>
				<stop  offset="1" style="stop-color:#D40094"/>
			</linearGradient>
			<path style="fill:url(#SVGID_00000181789924966757352730000005324944376573904019_);" d="M168.37,186.01
				c-15.9-3.47-24.5-11.26-33.63-16.77c-8.87-5.35-17.86-7.45-27.11-7.81c-8.4-0.33-11.26,3.47-15.45,8.67
				c-2.14,2.65-6,8.27-9.28,13.14c11.59,15.04,29.44,25.07,49.57,25.99c19.86,0.91,37.88-6.92,50.63-19.95
				C177.94,188.13,172.64,186.94,168.37,186.01z"/>
		</g>
	</g>
	<path d="M67,152.3l1.78,4.67c42.06-16,99.48-26.18,134.53-6.8l2.42-4.38C169.18,125.59,110.11,135.91,67,152.3z"/>
	<path d="M112.12,78.27l-4.8-1.38c-6.3,21.83-7.91,46.07-4.66,70.08c3.25,24.04,11.22,46.75,23.06,65.67l4.24-2.65
		C106.74,172.88,99.75,121.18,112.12,78.27z"/>
	<path d="M91.87,128.76c-7.98,0-16.21-1.8-22.33-5.88l2.77-4.16c10.8,7.2,29.83,6.16,38.39,0.5l4.61-3.05
		c25.45-16.88,43.83-29.07,66.36-29.1l0.01,5c-21.02,0.03-38.88,11.87-63.6,28.26l-4.61,3.06
		C108.33,126.79,100.23,128.76,91.87,128.76z"/>
	<g>
		<g>
			<path d="M57.33,87.3c0.15,0.5,0.3,0.99,0.45,1.48c0.79-0.32,1.71-0.36,2.75-0.14c1.04,0.22,1.97,0.66,2.82,1.3
				c1.45,1.1,2.28,2.42,2.55,3.92c0.27,1.51-0.06,2.95-1.01,4.4c-0.72,1.1-1.61,1.93-2.7,2.5c0.16,0.38,0.33,0.75,0.49,1.13
				c-0.18,0.31-0.36,0.62-0.53,0.93c-0.26-0.55-0.51-1.11-0.75-1.68c-1.7,0.65-3.46,0.53-5.27-0.47c-1.61-0.88-2.61-2.15-2.96-3.84
				c-0.35-1.68,0.04-3.46,1.17-5.2c0.74-1.14,1.6-1.98,2.57-2.5c-0.09-0.29-0.19-0.57-0.28-0.86C56.86,87.95,57.09,87.63,57.33,87.3
				z M57.87,86.87c0.1-0.02,0.2-0.04,0.31-0.07c0.09,0.35,0.19,0.69,0.29,1.03c1.97-0.58,3.83-0.11,5.6,1.28
				c1.55,1.21,2.43,2.7,2.7,4.43c0.27,1.73-0.11,3.34-1.15,4.95c-0.61,0.93-1.43,1.67-2.51,2.27c0.17,0.38,0.35,0.76,0.53,1.13
				c-0.36,0.6-0.71,1.22-1.05,1.83c-0.05-0.1-0.09-0.2-0.14-0.3c0.29-0.51,0.58-1.02,0.87-1.52c-0.17-0.36-0.33-0.72-0.49-1.09
				c1.14-0.78,1.97-1.56,2.5-2.38c1.03-1.58,1.41-3.16,1.15-4.83c-0.26-1.67-1.12-3.11-2.64-4.29c-0.85-0.66-1.77-1.11-2.76-1.32
				c-0.99-0.21-1.94-0.17-2.83,0.15C58.12,87.72,57.99,87.29,57.87,86.87z M57.28,90.34c-0.88,0.18-1.64,0.76-2.26,1.72
				c-1.52,2.37-0.62,4.55,2.59,6.42c1.32,0.78,2.36,1.17,3.13,1.2c-0.11-0.25-0.22-0.5-0.32-0.75c-0.04-0.02-0.08-0.03-0.13-0.05
				c-0.82-0.29-1.53-0.61-2.13-0.97c-2.96-1.76-3.82-3.74-2.48-5.81c0.42-0.65,0.99-1.13,1.69-1.44
				C57.35,90.56,57.31,90.45,57.28,90.34z M59.31,90.6c0.88,2.8,1.86,5.53,2.95,8.17c0.38-0.04,0.75-0.14,1.11-0.3
				c0.01,0.05,0.02,0.1,0.03,0.15c-0.47,0.25-0.91,0.4-1.31,0.44c-1.18-2.78-2.23-5.66-3.17-8.61c-0.18-0.06-0.41-0.11-0.7-0.15
				c1.02,3.22,2.19,6.35,3.49,9.37c0.99-0.16,1.79-0.74,2.43-1.72c0.62-0.96,0.73-1.92,0.32-2.93c-0.41-1.01-1.31-2.03-2.74-3.06
				C60.89,91.38,60.09,90.92,59.31,90.6z M57.41,90.82c-0.55,0.23-1.04,0.67-1.46,1.32c-1.25,1.93-0.43,3.78,2.38,5.47
				c0.73,0.44,1.37,0.74,1.93,0.91C59.21,96.03,58.26,93.46,57.41,90.82z"/>
			<path d="M59.78,84.25c1.2-1.51,2.43-2.98,3.7-4.39c-0.07,0.7-0.13,1.4-0.18,2.1c1.44,1.26,2.88,2.51,4.32,3.77
				c-0.01-0.29-0.03-0.58-0.04-0.87c-1.26-1.12-2.52-2.24-3.79-3.36c0.04-0.57,0.08-1.13,0.13-1.7c0.09,0,0.18,0,0.28,0.01
				c-0.05,0.52-0.09,1.04-0.12,1.56c1.15,1.03,2.31,2.06,3.46,3.09c-0.09-1.66-0.14-3.34-0.14-5.03c0-0.73-0.14-1.24-0.43-1.52
				c-0.17-0.17-0.44-0.22-0.81-0.15c-0.37,0.07-0.73,0.23-1.08,0.5c-0.02-0.02-0.05-0.04-0.07-0.07c1.46-1.55,2.96-3.04,4.5-4.46
				c0.02,0.02,0.04,0.05,0.06,0.07c-0.83,1.13-1.29,2.82-1.3,5c-0.01,0.75-0.01,1.51,0,2.26c2.62,0.53,5.18,1.17,7.68,1.92
				c0.66-0.16,1.33-0.31,1.99-0.45c-1.32,1.22-2.61,2.49-3.87,3.81c0.09-0.55,0.19-1.1,0.3-1.65c-1.73-0.48-3.49-0.91-5.27-1.29
				c0.05,0.88,0.1,1.76,0.17,2.63c0.68,0.6,1.35,1.2,2.03,1.81c0.84-0.04,1.67-0.06,2.5-0.06c-1.21,1.32-2.39,2.69-3.53,4.1
				c-0.13,0.02-0.25,0.04-0.38,0.06c1.07-1.34,2.17-2.63,3.3-3.88c-0.66,0-1.32,0.02-1.98,0.04c-0.73-0.65-1.47-1.3-2.2-1.95
				c-0.08-0.93-0.15-1.87-0.2-2.82c-0.16-0.03-0.32-0.07-0.48-0.1c0.04,1.11,0.1,2.21,0.19,3.31c0.74,0.65,1.48,1.29,2.22,1.94
				c0.54-0.1,1.09-0.2,1.63-0.29c-1.08,1.21-2.13,2.46-3.15,3.75c0.02-0.62,0.04-1.24,0.07-1.86c-2.55-2.11-5.1-4.23-7.65-6.34
				C61.03,83.9,60.41,84.07,59.78,84.25z M70.54,73.96c-0.82,0.83-1.29,2.04-1.39,3.59c-0.06,0.92-0.1,1.83-0.13,2.75
				c2.56,0.61,5.07,1.32,7.52,2.12c1.14-0.24,2.27-0.45,3.39-0.63c-1.63,1.43-3.22,2.94-4.76,4.53c-0.13,0.01-0.26,0.02-0.39,0.03
				c1.4-1.46,2.84-2.85,4.32-4.17c-0.85,0.14-1.7,0.31-2.56,0.49c-2.53-0.81-5.11-1.53-7.76-2.13c0.02-0.98,0.05-1.96,0.1-2.95
				c0.09-1.54,0.57-2.78,1.41-3.68C70.38,73.92,70.46,73.94,70.54,73.96z"/>
			<path d="M81.37,64.42c-0.02,0.08-0.04,0.17-0.06,0.25c-0.22,1.1-0.22,2.2-0.01,3.3c-0.15-0.08-0.25-0.13-0.32-0.17
				c-0.78-0.39-1.43-0.52-1.95-0.42c-0.52,0.1-1.3,0.53-2.31,1.29c-0.46,0.35-1.01,0.79-1.63,1.33c0.91,1.14,1.81,2.28,2.72,3.42
				c0.19-0.15,0.37-0.3,0.56-0.44c-0.79-1.01-1.59-2.03-2.38-3.04c0.44-0.4,0.87-0.76,1.29-1.08c0.78-0.59,1.42-0.95,1.89-1.08
				c0.47-0.13,1-0.09,1.58,0.11c-0.12,0.01-0.21,0.01-0.27,0.01c-0.74,0.02-1.24,0.09-1.51,0.19c-0.27,0.1-0.73,0.39-1.38,0.88
				c-0.2,0.15-0.54,0.42-1.02,0.83c-0.06,0.05-0.12,0.1-0.19,0.16c0.74,0.95,1.48,1.9,2.22,2.85c0.54-0.42,1.08-0.83,1.63-1.24
				c0.05-0.73,0.11-1.47,0.17-2.21c0.8,1.11,1.59,2.22,2.39,3.33c-0.68-0.16-1.37-0.31-2.07-0.45c-0.8,0.6-1.6,1.21-2.38,1.84
				c1.11,1.39,2.21,2.78,3.32,4.17c0.17-0.14,0.35-0.28,0.52-0.41c-1-1.28-2.01-2.56-3.01-3.84c0.62-0.49,1.25-0.97,1.89-1.44
				c0.13,0.01,0.25,0.02,0.37,0.03c-0.64,0.47-1.27,0.95-1.9,1.44c0.95,1.22,1.9,2.44,2.85,3.66c1.11-0.87,1.86-1.53,2.23-2.02
				c0.37-0.5,0.54-1.06,0.52-1.7c-0.01-0.34-0.02-0.68-0.03-1.03c0-0.04-0.01-0.12-0.01-0.24c0.54,0.47,1.04,0.81,1.5,1
				c0.45,0.2,1.09,0.36,1.9,0.5c-3.18,2.07-6.24,4.38-9.16,6.93c0.15-0.62,0.32-1.25,0.49-1.87c-0.91-1.08-1.81-2.16-2.72-3.25
				c-0.43,0.45-0.75,0.94-0.95,1.46c-0.08-0.02-0.16-0.03-0.25-0.05c0.15-0.51,0.5-1.04,1.03-1.6c-0.1-0.11-0.19-0.23-0.29-0.34
				c-0.1,0.07-0.18,0.12-0.22,0.16c-0.58,0.49-0.94,1.12-1.09,1.89c-0.42-0.98-0.16-1.89,0.77-2.68c-0.87-1.04-1.74-2.07-2.6-3.11
				c-0.7,0.09-1.4,0.19-2.1,0.3C74.58,69.24,77.91,66.71,81.37,64.42z M89.47,73.61c0,0.33,0.01,0.67,0.02,1
				c-3.08,1.96-6.04,4.16-8.87,6.58c-0.1-0.03-0.19-0.06-0.29-0.09c2.84-2.44,5.82-4.65,8.91-6.64c-0.01-0.23-0.02-0.46-0.03-0.69
				c-1.27-0.19-2.35-0.55-3.23-1.11c0.11-0.03,0.23-0.06,0.34-0.09c0.77,0.46,1.75,0.78,2.93,1C89.33,73.58,89.4,73.6,89.47,73.61z
				 M81.2,69.17c0.81,1.14,1.61,2.29,2.42,3.43c-0.1,0.02-0.19,0.04-0.29,0.05c-0.81-1.14-1.62-2.28-2.43-3.42
				C81,69.21,81.1,69.19,81.2,69.17z M82.2,64.68c-0.01,0.04-0.01,0.08-0.02,0.12c-0.22,1.38-0.24,2.45-0.1,3.2
				c-0.09-0.02-0.18-0.04-0.27-0.06c-0.14-1.09-0.09-2.21,0.14-3.34C82.04,64.62,82.12,64.65,82.2,64.68z"/>
			<path d="M84.29,63.92c1.09-1.69,2.58-3.06,4.44-4.05c1.44-0.77,2.78-1.1,3.98-1.03c1.2,0.08,1.98,0.54,2.35,1.35
				c0.31,0.67,0.28,1.39-0.07,2.18c-0.35,0.79-0.97,1.54-1.85,2.27c0.99,0.85,2.11,1.6,3.34,2.27c1.23,0.67,2.32,1.13,3.29,1.37
				c-0.04,0.03-0.08,0.07-0.12,0.1c-0.77,0.7-1.45,1.52-2.04,2.46c-0.03,0.05-0.06,0.1-0.09,0.15c-0.06-0.08-0.12-0.17-0.18-0.25
				c-1.47-2.01-2.95-3.59-4.47-4.72c-0.03-0.02-0.05-0.04-0.08-0.06c-0.34,0.41-0.84,0.85-1.5,1.36c-0.02,0.02-0.05,0.03-0.07,0.05
				c0.58,1.04,1.15,2.07,1.73,3.11c0.81,0.23,1.62,0.47,2.41,0.73c-1.52,0.8-3.01,1.64-4.49,2.54c-0.09-0.05-0.18-0.09-0.27-0.13
				c1.36-0.83,2.74-1.62,4.14-2.37c-0.66-0.2-1.32-0.4-1.99-0.58c-0.62-1.11-1.25-2.23-1.87-3.34c0.06-0.04,0.12-0.09,0.18-0.13
				c0.67-0.46,1.2-0.9,1.59-1.34c-0.07-0.05-0.12-0.08-0.13-0.09c-0.07-0.06-0.15-0.13-0.22-0.19c-0.02-0.01-0.05-0.04-0.1-0.08
				c-0.34,0.31-1.02,0.81-2.03,1.53c-0.03,0.02-0.06,0.05-0.09,0.08c0.7,1.23,1.4,2.45,2.09,3.68c0.52,0.14,1.04,0.28,1.56,0.43
				c-1.3,0.71-2.58,1.46-3.85,2.25c0.17-0.55,0.35-1.1,0.54-1.65c-0.55-0.91-1.1-1.82-1.64-2.73c-0.02,0.02-0.05,0.03-0.07,0.05
				c-0.31,0.28-0.58,0.55-0.81,0.82c-0.02,0.02-0.04,0.05-0.06,0.07c-0.06-0.04-0.12-0.07-0.18-0.11c0.21-0.26,0.38-0.45,0.51-0.57
				c0.14-0.13,0.28-0.27,0.42-0.4c0.02-0.02,0.04-0.04,0.06-0.06c-0.08-0.14-0.17-0.28-0.25-0.42c-0.36,0.22-0.77,0.56-1.21,1.03
				c-0.03,0.03-0.05,0.06-0.08,0.09c-0.03-0.08-0.08-0.3-0.15-0.64c0-0.03-0.03-0.18-0.1-0.44c0-0.02-0.01-0.05-0.02-0.09
				c0.29-0.16,0.51-0.28,0.66-0.37c0.17-0.1,0.32-0.2,0.45-0.3c-0.8-1.33-1.61-2.67-2.41-4c-0.39,0.03-0.78,0.09-1.16,0.18
				C84.35,63.9,84.32,63.91,84.29,63.92z M87.14,61.94c0.84,1.48,1.69,2.97,2.53,4.45c0.18-0.1,0.35-0.21,0.5-0.33
				c-0.76-1.36-1.52-2.72-2.28-4.08c0.32-0.29,0.74-0.57,1.25-0.85c1.31-0.7,2.39-0.79,3.22-0.29c-0.67-0.1-1.22-0.11-1.66-0.04
				c-0.44,0.07-0.93,0.24-1.45,0.52c-0.41,0.22-0.75,0.45-1.01,0.68c0.73,1.31,1.45,2.61,2.18,3.92c0.03-0.02,0.06-0.05,0.09-0.07
				c1.13-0.88,1.91-1.68,2.31-2.43c0.4-0.75,0.43-1.48,0.09-2.18c-0.31-0.63-0.86-1.01-1.65-1.13c-0.79-0.12-1.63,0.06-2.52,0.53
				C88.03,61.02,87.5,61.46,87.14,61.94z M94.54,64.48c0.98,0.97,2.24,1.78,3.75,2.46c0.94,0.43,2,0.72,3.18,0.9
				c-1.25,0.94-2.3,2.06-3.13,3.34c-0.02,0.03-0.04,0.06-0.05,0.09c-0.08-0.02-0.16-0.03-0.24-0.05c0.77-1.26,1.75-2.35,2.92-3.25
				c-2.23-0.37-4.45-1.47-6.7-3.34c-0.04-0.04-0.09-0.08-0.13-0.12c1.63-1.62,2.2-3.08,1.58-4.46c-0.26-0.57-0.8-1.06-1.65-1.48
				c0.94,0.21,1.59,0.73,1.96,1.55C96.61,61.47,96.08,62.9,94.54,64.48z"/>
			<path d="M108.84,52.17c-0.74,0.58-1.18,1.06-1.33,1.43c-0.23,0.56-0.2,1.31,0.07,2.24c0.06,0.2,0.12,0.39,0.17,0.59
				c0.79,2.67,1.58,5.35,2.36,8.02c-0.54,0.16-1.07,0.32-1.61,0.48c-2.37-2.3-4.88-4.5-7.53-6.6c0.61,1.61,1.22,3.21,1.84,4.82
				c0.05,0.13,0.09,0.27,0.14,0.4c0.2,0.41,0.4,0.82,0.6,1.23c0.35,0.55,0.8,0.87,1.35,1c0.03,0.01,0.07,0.02,0.1,0.04
				c-0.96,0.04-1.73-0.66-2.3-2.13c-0.1-0.28-0.21-0.56-0.31-0.84c-0.62-1.62-1.24-3.23-1.86-4.85c-0.31-0.24-0.61-0.48-0.92-0.71
				c0.67,1.7,1.33,3.39,2,5.09c0.63,1.61,1.16,2.63,1.58,3.04c0.42,0.41,1.09,0.58,2,0.51c0.37,0.18,0.74,0.36,1.11,0.54
				c-1.68,0.58-3.34,1.22-4.99,1.92c-0.08-0.06-0.16-0.12-0.25-0.17c1.52-0.65,3.06-1.25,4.62-1.8c-0.22-0.11-0.44-0.21-0.66-0.32
				c-1.45,0.53-2.89,1.09-4.32,1.7c0.64-0.57,0.99-1.12,1.07-1.66c0.07-0.53-0.1-1.33-0.53-2.39c-0.95-2.35-1.9-4.7-2.84-7.04
				c-0.6-0.14-1.2-0.27-1.8-0.4c1.78-0.74,3.58-1.43,5.4-2.06c-0.41,0.46-0.81,0.92-1.21,1.39c2.75,2.17,5.36,4.46,7.81,6.84
				c-0.11-0.36-0.22-0.73-0.33-1.09c-2.12-2.03-4.35-3.99-6.69-5.87c0.39-0.46,0.79-0.92,1.2-1.37c0.09,0.03,0.18,0.07,0.26,0.1
				c-0.36,0.4-0.72,0.8-1.07,1.21c2.14,1.75,4.19,3.56,6.14,5.44c-0.43-1.41-0.87-2.83-1.3-4.24c-0.05-0.16-0.1-0.32-0.15-0.48
				c-0.32-1.05-0.64-1.73-0.95-2.02c-0.31-0.29-0.93-0.48-1.84-0.54C105.53,53.09,107.18,52.61,108.84,52.17z M109.41,52.74
				c-0.04,0.11-0.08,0.22-0.12,0.33c-0.53,0.26-0.85,0.56-0.97,0.91c-0.12,0.35-0.07,0.88,0.13,1.58c0.89,3.14,1.78,6.27,2.67,9.41
				c-0.68,0.19-1.35,0.39-2.03,0.59c-0.07-0.07-0.13-0.14-0.2-0.21c0.63-0.19,1.26-0.38,1.9-0.56c-0.87-3.02-1.74-6.04-2.61-9.07
				c-0.25-0.86-0.29-1.49-0.12-1.9C108.23,53.42,108.68,53.05,109.41,52.74z"/>
			<path d="M116.03,51.87c1.56-1.3,3.5-2.11,5.72-2.38c1.62-0.2,2.98-0.01,4.04,0.52c1.07,0.53,1.62,1.29,1.68,2.25
				c0.08,1.29-0.71,2.19-2.34,2.77c0,0.03,0.01,0.07,0.01,0.1c0.17,0.02,0.38,0.06,0.63,0.1c0.77-0.23,1.36-0.61,1.78-1.14
				c0.42-0.53,0.62-1.15,0.58-1.87c-0.05-0.9-0.52-1.67-1.45-2.3c0-0.02,0-0.04,0-0.06c0.04,0.03,0.09,0.05,0.13,0.08
				c1.02,0.57,1.55,1.37,1.6,2.36c0.07,1.38-0.69,2.37-2.23,3.04c0.71,0.23,1.28,0.6,1.69,1.1c0.41,0.5,0.63,1.08,0.67,1.74
				c0.05,0.94-0.27,1.71-0.95,2.32c-0.68,0.61-1.6,0.97-2.77,1.09c-2.34,0.24-4.68,0.58-6.99,1.01c0.38-0.45,0.76-0.9,1.15-1.34
				c-0.24-1.35-0.47-2.7-0.71-4.05c-0.41,0.07-0.88,0.19-1.41,0.37c-0.04-0.08-0.09-0.17-0.13-0.25c0.6-0.17,1.1-0.29,1.5-0.36
				c-0.03-0.17-0.06-0.33-0.09-0.5c-0.09,0.01-0.17,0.03-0.26,0.05c-0.39,0.07-0.88,0.18-1.46,0.34c0.09-0.33,0.19-0.65,0.29-0.98
				c0.06-0.01,0.11-0.01,0.17-0.02c0.28-0.03,0.49-0.06,0.63-0.08c0.21-0.04,0.38-0.06,0.5-0.06c-0.21-1.17-0.41-2.34-0.62-3.51
				C116.93,52.1,116.48,51.98,116.03,51.87z M128.14,56.01c0.78,0.48,1.18,1.26,1.23,2.33c0.05,1.07-0.31,1.98-1.05,2.72
				c-0.72,0.73-1.8,1.14-3.26,1.29c-2.2,0.22-4.4,0.53-6.58,0.93c-0.07-0.07-0.14-0.15-0.21-0.22c2.03-0.37,4.07-0.67,6.13-0.89
				c1.34-0.14,2.29-0.35,2.87-0.66c1.28-0.69,1.9-1.74,1.83-3.22c-0.04-0.82-0.39-1.55-1.07-2.18
				C128.06,56.08,128.1,56.05,128.14,56.01z M119.47,51.16c0.21,1.41,0.42,2.82,0.64,4.23c0.08-0.02,0.13-0.03,0.16-0.03
				c0.06-0.01,0.13-0.01,0.19-0.02c0.03,0,0.09-0.01,0.18-0.03c-0.18-1.28-0.37-2.56-0.55-3.84c0.6-0.34,1.2-0.55,1.81-0.62
				c0.7-0.08,1.26-0.04,1.69,0.14c0.43,0.17,0.8,0.5,1.13,1c-0.11-0.04-0.21-0.08-0.32-0.12c-0.62-0.66-1.45-0.93-2.48-0.81
				c-0.58,0.07-1.08,0.28-1.49,0.61c0.17,1.2,0.34,2.4,0.51,3.61c0.15-0.02,0.3-0.04,0.44-0.06c1.35-0.18,2.33-0.48,2.96-0.95
				c0.63-0.47,0.91-1.1,0.84-1.93c-0.06-0.72-0.4-1.28-1.02-1.67c-0.62-0.39-1.41-0.53-2.35-0.42
				C120.96,50.35,120.18,50.65,119.47,51.16z M120.22,56.16c0.26,1.72,0.52,3.45,0.78,5.17c0.16-0.02,0.33-0.05,0.49-0.07
				c-0.22-1.54-0.44-3.07-0.66-4.61c0.49-0.1,0.84-0.16,1.06-0.19c1.16-0.15,2.01-0.14,2.54,0c0.54,0.14,0.98,0.48,1.34,1
				c-0.04,0-0.08,0.01-0.12,0.01c-0.38-0.41-0.83-0.67-1.36-0.78c-0.53-0.11-1.3-0.12-2.29,0.01c-0.28,0.04-0.57,0.09-0.85,0.13
				c0.21,1.46,0.41,2.92,0.62,4.39c0.11-0.01,0.21-0.03,0.32-0.04c0.48-0.08,0.95-0.15,1.43-0.23c1.84-0.34,2.71-1.26,2.58-2.87
				c-0.08-1-0.46-1.66-1.15-1.97c-0.68-0.31-1.93-0.37-3.71-0.13C121.03,56,120.7,56.06,120.22,56.16z"/>
			<path d="M140.89,49.3c-0.42,0.34-0.84,0.68-1.25,1.03c0.52,1.42,1.01,2.84,1.47,4.26c0.15-0.06,0.3-0.11,0.45-0.17
				c-0.41-1.29-0.85-2.57-1.3-3.86c0.42-0.36,0.85-0.71,1.28-1.06c0.09,0.04,0.19,0.09,0.28,0.13c-0.41,0.33-0.82,0.67-1.22,1.01
				c0.43,1.22,0.83,2.43,1.22,3.65c0.09-0.05,0.14-0.08,0.16-0.09c0.13-0.08,0.25-0.15,0.38-0.23c0.23-0.13,0.38-0.22,0.44-0.28
				c0.11,0.74,0.33,1.41,0.64,2.02c-0.2-0.04-0.35-0.06-0.44-0.07c-0.67-0.07-1.17-0.02-1.49,0.14c0.49,1.6,0.94,3.21,1.36,4.82
				c0.45,0.42,0.9,0.85,1.34,1.27c-1.65-0.22-3.3-0.38-4.96-0.5c0.48-0.33,0.96-0.66,1.46-0.99c-0.29-0.95-0.58-1.9-0.9-2.85
				c-0.81,0.64-1.42,1.28-1.85,1.89c-0.08-0.02-0.15-0.05-0.23-0.07c0.43-0.6,1.07-1.26,1.93-1.96c0.03-0.03,0.06-0.06,0.09-0.09
				c-0.06-0.14-0.11-0.29-0.17-0.43c-0.87,0.57-1.59,1.25-2.15,2.06c-0.06-0.09-0.11-0.19-0.17-0.28c-0.33-0.54-0.76-1.16-1.3-1.84
				c-0.03-0.04-0.07-0.08-0.1-0.12c-0.57,1.07-0.84,1.94-0.85,2.62c-0.01,0.4,0.06,0.74,0.19,1.01c0.14,0.28,0.47,0.75,0.98,1.41
				c0.04,0.06,0.11,0.15,0.21,0.27c-1.76-0.07-3.52-0.07-5.27-0.03c-0.07-0.08-0.14-0.17-0.2-0.25c1.66-0.05,3.33-0.05,4.99,0.01
				c-0.05-0.07-0.11-0.14-0.16-0.2c-0.42-0.52-0.7-0.92-0.83-1.2c-0.13-0.28-0.19-0.62-0.19-0.99c0.01-0.64,0.3-1.6,0.91-2.86
				c-0.15-0.15-0.3-0.3-0.45-0.45c-0.1,0.2-0.22,0.49-0.36,0.88c-0.12,0.32-0.24,0.64-0.36,0.96c-0.19,0.52-0.29,0.95-0.29,1.29
				c0,0.35,0.06,0.65,0.18,0.88c0.12,0.23,0.39,0.56,0.78,0.97c0.04,0.04,0.1,0.1,0.17,0.18c-1.64-0.04-3.29-0.03-4.93,0.03
				c0.92-0.5,1.66-1.14,2.22-1.94c0.55-0.79,1.12-2.01,1.71-3.66c0.01-0.04,0.03-0.09,0.04-0.13c-0.37-0.29-0.91-0.47-1.62-0.53
				c0.39-0.52,0.69-1.06,0.91-1.62c0.1,0.08,0.16,0.13,0.18,0.15c0.16,0.13,0.32,0.27,0.48,0.4c0.16,0.14,0.36,0.29,0.58,0.44
				c0.07-0.14,0.13-0.28,0.2-0.41c-0.04-0.03-0.08-0.06-0.13-0.1c-0.35-0.28-0.65-0.51-0.9-0.69c-0.03-0.02-0.06-0.04-0.1-0.07
				c0.06-0.07,0.12-0.14,0.17-0.21c0.38,0.22,0.75,0.49,1.09,0.78c0.51-1.17,1.05-2.34,1.6-3.5c-0.38-0.37-0.77-0.75-1.16-1.12
				C137.41,49.07,139.15,49.16,140.89,49.3z M137.5,51.04c-0.65,1.3-1.27,2.61-1.87,3.92c0.52,0.51,0.97,1.01,1.33,1.51
				c0.15,0.21,0.3,0.42,0.45,0.63c0.01,0.01,0.04,0.05,0.1,0.13c0.07-0.05,0.1-0.09,0.11-0.1c0.05-0.05,0.1-0.1,0.15-0.15
				c0.02-0.02,0.06-0.06,0.12-0.12c-0.45-0.71-0.99-1.35-1.63-1.92c0.49-1.05,0.99-2.1,1.51-3.15
				C137.68,51.53,137.59,51.29,137.5,51.04z M137.94,52.16c-0.45,0.9-0.88,1.79-1.31,2.7c0.06,0.06,0.09,0.1,0.1,0.12
				c0.14,0.15,0.28,0.3,0.42,0.45c0.22,0.24,0.5,0.6,0.83,1.1c0.03,0.05,0.06,0.1,0.1,0.15c0.32-0.33,0.69-0.64,1.13-0.95
				C138.8,54.54,138.38,53.35,137.94,52.16z M143.68,54.26c0.09,0.58,0.39,1.4,0.87,2.47c-0.15-0.04-0.24-0.06-0.26-0.06
				c-0.28-0.06-0.56-0.11-0.84-0.17c-0.38-0.08-0.66-0.12-0.83-0.14c-0.03,0-0.1-0.01-0.21-0.01c0.44,1.45,0.84,2.91,1.22,4.37
				c0.66,0.71,1.3,1.43,1.93,2.15c-1.87-0.28-3.74-0.5-5.62-0.65c-0.05-0.09-0.11-0.18-0.16-0.27c1.73,0.14,3.46,0.32,5.17,0.57
				c-0.51-0.58-1.03-1.16-1.57-1.73c-0.41-1.55-0.85-3.09-1.32-4.64c0.24-0.03,0.52-0.03,0.83,0c0.38,0.04,0.79,0.12,1.25,0.23
				c-0.03-0.07-0.07-0.15-0.1-0.22c-0.36-0.79-0.58-1.5-0.67-2.11C143.48,54.11,143.58,54.19,143.68,54.26z"/>
			<path d="M158.31,52.43c-0.5,0.32-0.92,0.69-1.27,1.1c-0.68,0.8-1.11,1.3-1.31,1.47c-0.02,0.01-0.04,0.03-0.07,0.04
				c-0.01-0.07-0.02-0.13-0.02-0.17c-0.06-0.6-0.13-1.03-0.21-1.27c-0.08-0.25-0.22-0.5-0.44-0.76c-0.54-0.66-1.25-1.08-2.1-1.26
				c-0.79-0.17-1.48-0.11-2.08,0.16c-0.59,0.27-0.94,0.69-1.04,1.25c-0.19,1.05,0.59,1.91,2.29,2.66c0.57,0.25,1.13,0.51,1.69,0.77
				c2.4,1.13,3.29,2.66,2.78,4.44c-0.28,1-0.93,1.72-1.9,2.19c-0.98,0.47-2.04,0.57-3.2,0.31c-0.73-0.16-1.53-0.44-2.4-0.84
				c-0.36-0.16-0.72-0.32-1.09-0.48c-0.44-0.19-0.82-0.3-1.12-0.35c-0.4-0.07-0.83-0.01-1.29,0.17c-0.02-0.05-0.04-0.1-0.06-0.14
				c0.99-1.05,1.75-2.06,2.27-3.06c0.06,0.03,0.12,0.05,0.17,0.08c-0.03,1,0.26,1.83,0.85,2.5c0.59,0.67,1.43,1.11,2.53,1.35
				c0.87,0.19,1.6,0.16,2.21-0.09c0.61-0.25,1-0.7,1.17-1.34c0.19-0.74-0.01-1.45-0.64-2.11c-0.45-0.47-1.48-1.06-3.11-1.7
				c-1.26-0.49-2.14-1.04-2.65-1.68c-0.51-0.64-0.69-1.43-0.54-2.38c0.16-0.99,0.7-1.72,1.65-2.19c0.95-0.47,2.11-0.58,3.46-0.29
				c0.87,0.18,1.85,0.53,2.94,1.07c0.51,0.25,0.88,0.41,1.14,0.48c0.36,0.09,0.78,0.09,1.26,0
				C158.24,52.37,158.28,52.4,158.31,52.43z M156.7,58.26c0.76,0.88,0.96,1.87,0.64,2.96c-0.34,1.16-1.11,2-2.28,2.55
				c-1.17,0.55-2.4,0.67-3.75,0.37c-0.69-0.15-1.29-0.35-1.82-0.6c-0.49-0.22-0.98-0.44-1.47-0.66c-0.35-0.15-0.73-0.26-1.14-0.33
				c-0.37-0.06-0.72-0.04-1.05,0.05c-0.02-0.1-0.05-0.19-0.07-0.29c0.36-0.1,0.72-0.12,1.07-0.06c0.39,0.06,0.83,0.2,1.3,0.4
				c0.48,0.2,0.95,0.41,1.42,0.63c0.56,0.25,1.17,0.45,1.82,0.6c1.27,0.29,2.45,0.17,3.56-0.37c1.11-0.54,1.85-1.34,2.17-2.44
				c0.27-0.93,0.15-1.85-0.4-2.75C156.69,58.3,156.7,58.28,156.7,58.26z M148.08,56.03c0.11,0.08,0.22,0.16,0.33,0.24
				c0.17,0.41,0.78,0.82,1.84,1.28c0.53,0.23,1.06,0.47,1.58,0.71c1.06,0.49,1.75,0.89,2.07,1.16c0.32,0.27,0.51,0.61,0.57,1.02
				c-0.03,0.01-0.05,0.01-0.08,0.02c-0.22-0.39-0.49-0.71-0.81-0.94c-0.32-0.23-0.95-0.57-1.92-1.01c-1.4-0.62-2.36-1.07-2.82-1.39
				C148.37,56.8,148.11,56.44,148.08,56.03z M148.83,59.28c0.04,1.17,0.55,2.08,1.5,2.75c-0.01,0.02-0.01,0.05-0.02,0.07
				c-1.14-0.58-1.73-1.51-1.77-2.83C148.64,59.28,148.74,59.28,148.83,59.28z M155.23,54c-0.61-0.91-1.39-1.47-2.31-1.66
				c-0.55-0.12-1.05-0.07-1.46,0.13c-0.42,0.2-0.67,0.51-0.75,0.94c-0.09,0.46,0.18,1,0.8,1.63c0.03,0.02,0.05,0.04,0.08,0.06
				c-0.02,0.02-0.05,0.04-0.07,0.06c-0.86-0.55-1.23-1.17-1.1-1.87c0.09-0.48,0.37-0.84,0.84-1.07c0.47-0.22,1.04-0.27,1.7-0.13
				c0.63,0.13,1.16,0.37,1.57,0.7c0.42,0.33,0.68,0.73,0.8,1.19C155.29,53.99,155.26,53.99,155.23,54z M158.88,53
				c-0.05,0.04-0.09,0.07-0.14,0.11c-0.42,0.34-0.78,0.67-1.09,1c-0.75,0.76-1.16,1.19-1.25,1.28c-0.02,0.02-0.05,0.03-0.07,0.05
				c-0.08-0.05-0.15-0.1-0.23-0.16c0.02-0.02,0.04-0.05,0.06-0.07c0.31-0.35,0.75-0.8,1.32-1.34c0.35-0.34,0.71-0.67,1.07-1.01
				c0.03-0.02,0.05-0.04,0.08-0.06C158.72,52.86,158.8,52.93,158.88,53z"/>
			<path d="M160.58,52.96c1.7,0.51,3.39,1.06,5.07,1.67c-0.64,0.21-1.28,0.43-1.91,0.66c-0.63,1.81-1.25,3.61-1.88,5.42
				c0.25-0.13,0.5-0.25,0.75-0.37c0.56-1.59,1.13-3.18,1.69-4.77c0.51-0.19,1.03-0.37,1.55-0.55c0.03,0.08,0.06,0.17,0.09,0.25
				c-0.48,0.16-0.95,0.33-1.42,0.5c-0.52,1.46-1.04,2.91-1.56,4.37c1.43-0.74,2.9-1.44,4.41-2.1c0.65-0.29,1.06-0.61,1.21-0.99
				c0.09-0.22,0.05-0.49-0.14-0.8c-0.19-0.31-0.46-0.57-0.82-0.79c0.01-0.03,0.02-0.06,0.03-0.09c1.87,0.72,3.73,1.51,5.56,2.36
				c-0.01,0.03-0.03,0.06-0.04,0.09c-1.31-0.32-2.99-0.07-4.94,0.77c-0.68,0.29-1.35,0.58-2.01,0.89c0.42,2.6,0.73,5.19,0.95,7.76
				c0.38,0.54,0.75,1.09,1.11,1.64c-1.57-0.73-3.15-1.41-4.76-2.04c0.52-0.13,1.04-0.25,1.57-0.37c-0.17-1.77-0.39-3.54-0.65-5.31
				c-0.76,0.39-1.52,0.78-2.26,1.19c-0.3,0.85-0.61,1.7-0.91,2.56c0.31,0.75,0.61,1.5,0.9,2.26c-1.58-0.59-3.17-1.13-4.78-1.62
				c-0.06-0.11-0.12-0.21-0.18-0.32c1.51,0.46,3.01,0.96,4.49,1.5c-0.22-0.6-0.46-1.2-0.7-1.79c0.33-0.92,0.66-1.85,0.98-2.77
				c0.8-0.44,1.6-0.87,2.42-1.28c-0.02-0.16-0.05-0.32-0.07-0.47c-0.97,0.47-1.92,0.96-2.85,1.46c-0.32,0.93-0.64,1.86-0.97,2.79
				c0.27,0.46,0.54,0.92,0.8,1.38c-1.43-0.51-2.87-0.98-4.32-1.41c0.54-0.23,1.09-0.45,1.64-0.66c1.01-3.15,2.02-6.31,3.03-9.47
				C161.3,53.97,160.94,53.46,160.58,52.96z M173.36,58.76c-1.04-0.42-2.3-0.38-3.71,0.14c-0.84,0.31-1.67,0.63-2.5,0.96
				c0.34,2.58,0.58,5.15,0.72,7.7c0.62,0.94,1.21,1.89,1.78,2.85c-1.88-0.94-3.8-1.79-5.74-2.57c-0.05-0.11-0.11-0.23-0.16-0.34
				c1.77,0.71,3.53,1.48,5.26,2.31c-0.43-0.72-0.88-1.44-1.35-2.15c-0.16-2.62-0.42-5.26-0.79-7.91c0.88-0.37,1.77-0.72,2.66-1.06
				c1.41-0.52,2.69-0.57,3.8-0.15C173.34,58.61,173.35,58.68,173.36,58.76z"/>
			<path d="M186.09,65.01c-0.09,0.01-0.17,0.03-0.26,0.04c-1.1,0.22-2.11,0.64-3.05,1.26c0.02-0.16,0.03-0.28,0.03-0.36
				c0.06-0.86-0.06-1.52-0.35-1.96c-0.29-0.44-0.97-0.99-2.05-1.62c-0.5-0.29-1.1-0.62-1.82-0.97c-0.71,1.27-1.41,2.55-2.12,3.82
				c0.2,0.11,0.41,0.23,0.61,0.34c0.63-1.12,1.27-2.24,1.9-3.37c0.53,0.24,1.01,0.5,1.47,0.77c0.83,0.49,1.4,0.94,1.7,1.32
				c0.3,0.39,0.47,0.88,0.5,1.49c-0.06-0.11-0.09-0.19-0.11-0.24c-0.3-0.67-0.55-1.11-0.75-1.32c-0.19-0.21-0.63-0.52-1.33-0.93
				c-0.21-0.12-0.59-0.33-1.14-0.62c-0.07-0.04-0.14-0.07-0.21-0.11c-0.59,1.05-1.19,2.09-1.78,3.14c0.58,0.33,1.16,0.67,1.74,1.01
				c0.69-0.24,1.39-0.47,2.1-0.69c-0.72,1.16-1.44,2.32-2.16,3.48c-0.11-0.69-0.23-1.38-0.36-2.08c-0.85-0.51-1.7-1-2.56-1.47
				c-0.86,1.55-1.72,3.11-2.58,4.66c0.19,0.1,0.38,0.21,0.57,0.32c0.8-1.42,1.6-2.83,2.4-4.25c0.68,0.38,1.35,0.77,2.02,1.17
				c0.04,0.12,0.08,0.24,0.11,0.36c-0.67-0.4-1.35-0.8-2.02-1.18c-0.76,1.34-1.53,2.69-2.29,4.03c1.2,0.68,2.09,1.12,2.69,1.27
				c0.6,0.15,1.18,0.09,1.76-0.18c0.31-0.14,0.62-0.29,0.93-0.43c0.04-0.02,0.11-0.06,0.22-0.11c-0.23,0.68-0.35,1.27-0.35,1.77
				c-0.01,0.5,0.08,1.14,0.27,1.94c-3.14-2.15-6.4-4.06-9.76-5.73c0.62-0.1,1.24-0.2,1.87-0.29c0.65-1.25,1.31-2.5,1.96-3.75
				c-0.56-0.22-1.12-0.32-1.67-0.29c-0.01-0.08-0.03-0.16-0.04-0.24c0.51-0.06,1.12,0.05,1.83,0.32c0.07-0.13,0.14-0.26,0.21-0.4
				c-0.1-0.07-0.18-0.11-0.22-0.14c-0.65-0.34-1.36-0.42-2.11-0.26c0.74-0.77,1.65-0.89,2.71-0.34c0.63-1.2,1.25-2.4,1.88-3.59
				c-0.34-0.6-0.68-1.2-1.03-1.8C179.09,60.61,182.65,62.68,186.09,65.01z M180.72,76.01c-0.31,0.13-0.62,0.26-0.92,0.4
				c-3.01-2.1-6.14-3.97-9.36-5.61c-0.01-0.1-0.02-0.2-0.03-0.3c3.24,1.65,6.39,3.52,9.42,5.63c0.21-0.1,0.42-0.2,0.63-0.29
				c-0.32-1.25-0.4-2.39-0.21-3.41c0.07,0.09,0.14,0.19,0.22,0.28c-0.13,0.89-0.05,1.92,0.21,3.09
				C180.69,75.87,180.7,75.94,180.72,76.01z M181.65,66.68c-0.75,1.18-1.5,2.37-2.24,3.55c-0.05-0.08-0.11-0.16-0.16-0.25
				c0.74-1.18,1.49-2.37,2.23-3.56C181.53,66.51,181.59,66.59,181.65,66.68z M186.18,65.87c-0.04,0.01-0.08,0.02-0.11,0.02
				c-1.36,0.33-2.36,0.72-3,1.14c-0.02-0.09-0.03-0.18-0.05-0.27c0.96-0.55,2-0.94,3.14-1.15C186.16,65.7,186.17,65.79,186.18,65.87
				z"/>
			<path d="M198.07,74.66c-0.13,0.03-0.21,0.05-0.25,0.06c-0.46,0.09-0.91,0.18-1.36,0.28c-0.48,0.11-1.01,0.31-1.59,0.6
				c-0.02,0.01-0.03,0.01-0.05,0.02c-0.01-0.04-0.03-0.09-0.04-0.13c0.02-0.04,0.04-0.08,0.06-0.12c0.32-0.69,0.42-1.27,0.29-1.76
				c-0.13-0.49-0.52-1.02-1.17-1.58c-0.27-0.23-0.54-0.45-0.83-0.65c-0.04-0.03-0.07-0.06-0.11-0.09c-2.19,2.64-4.39,5.28-6.58,7.92
				c0.09,0.53,0.18,1.06,0.27,1.58c-1.19-1.03-2.41-2.02-3.65-2.96c0.6,0,1.21,0,1.82,0.01c1.95-2.47,3.91-4.94,5.86-7.42
				c-0.21-0.17-0.43-0.34-0.64-0.52c-0.63-0.49-1.16-0.72-1.58-0.72c-0.42,0.01-0.85,0.25-1.28,0.74c-0.08-0.06-0.16-0.12-0.24-0.17
				c0.5-0.55,0.99-0.83,1.47-0.84c0.48-0.01,1.07,0.25,1.77,0.8c0.18,0.15,0.36,0.29,0.54,0.44c0.03,0.03,0.07,0.05,0.1,0.08
				c0.1-0.12,0.19-0.24,0.29-0.37c-0.29-0.28-0.57-0.52-0.86-0.74c-0.79-0.61-1.47-0.91-2.02-0.9c-0.55,0.01-1.07,0.32-1.58,0.94
				c-0.04-0.03-0.07-0.05-0.11-0.08c0.25-0.9,0.41-2,0.45-3.29c0-0.04,0-0.08,0-0.12C190.91,68.34,194.59,71.34,198.07,74.66z
				 M194.89,74.55c-0.23-0.64-0.65-1.22-1.26-1.75c-0.14-0.12-0.28-0.23-0.44-0.34c-2.05,2.44-4.09,4.87-6.14,7.31
				c0.04,0.81,0.06,1.62,0.07,2.43c-1.31-1.16-2.64-2.27-4.01-3.34c-0.01-0.12-0.02-0.23-0.03-0.35c1.29,0.99,2.55,2.03,3.78,3.12
				c-0.03-0.67-0.06-1.34-0.11-2.01c2.12-2.52,4.25-5.05,6.37-7.57c0.16,0.13,0.32,0.27,0.49,0.4c0.57,0.49,0.94,0.89,1.11,1.17
				C194.91,73.91,194.96,74.21,194.89,74.55z M198.2,75.61c-0.78,0.02-1.83,0.29-3.13,0.84c-0.03,0.01-0.07,0.03-0.1,0.04
				c-0.02-0.1-0.04-0.2-0.06-0.31c0.03-0.01,0.06-0.03,0.08-0.04c1.3-0.58,2.34-0.85,3.09-0.84c0.03,0,0.06,0,0.08,0
				C198.17,75.41,198.19,75.51,198.2,75.61z"/>
			<path d="M202.96,79.7c1.29,1.43,2.54,2.91,3.75,4.44c-0.68-0.16-1.35-0.32-2.03-0.46c-2.53,2.11-5.06,4.21-7.59,6.32
				c0.03,0.57,0.06,1.13,0.08,1.69c-1.04-1.31-2.11-2.57-3.21-3.8c0.6,0.12,1.2,0.25,1.8,0.39c2.48-2.18,4.96-4.35,7.44-6.53
				C203.12,81.07,203.05,80.38,202.96,79.7z M206.64,84.91c-0.51-0.13-1.02-0.26-1.52-0.38c-2.5,2.04-5,4.07-7.49,6.11
				c-0.08,0.85-0.17,1.7-0.27,2.54c-1.13-1.47-2.3-2.89-3.51-4.25c0.01-0.12,0.01-0.25,0.02-0.37c1.14,1.28,2.24,2.6,3.31,3.96
				c0.07-0.68,0.14-1.37,0.19-2.05c2.54-2.08,5.07-4.17,7.61-6.25c0.56,0.13,1.13,0.27,1.69,0.41
				C206.65,84.72,206.64,84.81,206.64,84.91z"/>
			<path d="M207.87,85.62c1.2,1.57,2.36,3.2,3.48,4.87c-0.69-0.25-1.38-0.49-2.06-0.72c-2.77,1.94-5.53,3.88-8.3,5.83
				c0.02,0.02,0.03,0.05,0.05,0.07c0.07,0.11,0.14,0.23,0.2,0.34c0.02,0.03,0.04,0.05,0.06,0.08c2.76-1.91,5.52-3.82,8.29-5.73
				c0.54,0.17,1.07,0.35,1.61,0.54c-0.03,0.09-0.05,0.18-0.08,0.26c-0.48-0.17-0.97-0.33-1.45-0.48c-2.74,1.88-5.47,3.76-8.21,5.64
				c0.17,0.29,0.33,0.56,0.5,0.81c0.65,0.98,1.31,1.62,2.02,1.91c0.7,0.29,1.55,0.26,2.53-0.08c-1.1,1.52-1.75,2.74-1.94,3.7
				c-1.93-3.42-4.05-6.62-6.33-9.61c0.58,0.18,1.17,0.36,1.76,0.56c2.65-1.97,5.3-3.93,7.95-5.9
				C207.92,87.02,207.9,86.32,207.87,85.62z M205.17,103.6c-0.33-0.01-0.66-0.02-0.99-0.03c-1.9-3.4-3.98-6.6-6.22-9.59
				c0.01-0.12,0.03-0.25,0.04-0.37c2.29,3.03,4.41,6.27,6.34,9.72c0.23,0,0.45,0,0.68-0.01c0.34-1.14,0.83-2.2,1.48-3.17
				c0.02-0.03,0.04-0.06,0.07-0.09c0.03,0.13,0.06,0.25,0.09,0.38c-0.03,0.05-0.07,0.1-0.1,0.15c-0.55,0.92-1,1.88-1.35,2.87
				C205.2,103.51,205.18,103.56,205.17,103.6z"/>
		</g>
	</g>
</g>
</svg>
