<?xml version="1.0" encoding="utf-8"?>
<!-- Generator: Adobe Illustrator 26.0.0, SVG Export Plug-In . SVG Version: 6.00 Build 0)  -->
<svg version="1.1" id="Layer_1" xmlns="http://www.w3.org/2000/svg" xmlns:xlink="http://www.w3.org/1999/xlink" x="0px" y="0px"
	 viewBox="0 0 224.4 189.7" style="enable-background:new 0 0 224.4 189.7;" xml:space="preserve">
<style type="text/css">
	.st0{fill:none;}
	.st1{fill:url(#SVGID_1_);}
	.st2{fill:url(#SVGID_00000183215797286853453530000007015532186411134893_);}
</style>
<g id="Layer_1_00000179603799997051487570000013127093541760978344_">
	<path class="st0" d="M88.1,34.3l-3.9,17.5c0,0-2.3,16.2-2,16.5s-0.3,13.4-0.3,13.4"/>
</g>
<g id="Layer_2_00000008111287159504393980000005722690066093293722_">
	<g>
		<circle cx="116.3" cy="100.4" r="76.8"/>
		<g>
			
				<linearGradient id="SVGID_1_" gradientUnits="userSpaceOnUse" x1="182.9248" y1="273.7372" x2="49.9252" y2="273.7372" gradientTransform="matrix(1 0 0 -1 0 362.8358)">
				<stop  offset="0" style="stop-color:#3300D4"/>
				<stop  offset="0.1386" style="stop-color:#5700C6"/>
				<stop  offset="0.3364" style="stop-color:#8300B4"/>
				<stop  offset="0.5271" style="stop-color:#A600A6"/>
				<stop  offset="0.706" style="stop-color:#C0009C"/>
				<stop  offset="0.8685" style="stop-color:#CF0096"/>
				<stop  offset="1" style="stop-color:#D40094"/>
			</linearGradient>
			<path class="st1" d="M71.3,122.2c5.5-5.4,9.1-8.5,19.8-7.8s19.7,3.9,27.6,9c7.9,5.1,8.4,6.4,18.4,11c7,3.3,20.1,7.2,30,9.6
				c0.2-0.2,0.4-0.5,0.6-0.7c10.1-12.3,15.9-28.2,15.1-45.5c-1.6-33.6-28.5-61-62.1-63.2C81.3,31.9,48.7,63.8,50,103
				c0.4,12.4,4.2,23.9,10.6,33.8C63.2,132.5,67.7,125.7,71.3,122.2z"/>
		</g>
		<g>
			
				<linearGradient id="SVGID_00000181085808210899428140000006003867137804246963_" gradientUnits="userSpaceOnUse" x1="164.1" y1="220.0621" x2="63.9" y2="220.0621" gradientTransform="matrix(1 0 0 -1 0 362.8358)">
				<stop  offset="0" style="stop-color:#3300D4"/>
				<stop  offset="0.1386" style="stop-color:#5700C6"/>
				<stop  offset="0.3364" style="stop-color:#8300B4"/>
				<stop  offset="0.5271" style="stop-color:#A600A6"/>
				<stop  offset="0.706" style="stop-color:#C0009C"/>
				<stop  offset="0.8685" style="stop-color:#CF0096"/>
				<stop  offset="1" style="stop-color:#D40094"/>
			</linearGradient>
			<path style="fill:url(#SVGID_00000181085808210899428140000006003867137804246963_);" d="M149.4,143.4
				c-15.9-3.5-24.5-11.3-33.6-16.8c-8.9-5.4-17.9-7.4-27.1-7.8c-8.4-0.3-11.3,3.5-15.4,8.7c-2.1,2.7-6,8.3-9.3,13.1
				c11.6,15,29.4,25.1,49.6,26c19.9,0.9,37.9-6.9,50.6-19.9C158.9,145.5,153.6,144.4,149.4,143.4z"/>
		</g>
	</g>
	<path d="M48,109.7l1.8,4.7c42.1-16,99.5-26.2,134.5-6.8l2.4-4.4C150.2,83,91.1,93.3,48,109.7z"/>
	<path d="M93.1,35.7l-4.8-1.4c-6.3,21.8-7.9,46.1-4.7,70.1c3.2,24,11.2,46.8,23.1,65.7l4.2-2.6C87.7,130.3,80.8,78.6,93.1,35.7z"/>
	<path d="M72.9,86.2c-8,0-16.2-1.8-22.3-5.9l2.8-4.2c10.8,7.2,29.8,6.2,38.4,0.5l4.6-3.1c25.4-16.9,43.8-29.1,66.4-29.1l0,5
		c-21,0-38.9,11.9-63.6,28.3l-4.6,3.1C89.3,84.2,81.2,86.2,72.9,86.2z"/>
	<g>
		<g>
			<path d="M38.3,44.7c0.2,0.5,0.3,1,0.5,1.5c0.8-0.3,1.7-0.4,2.8-0.1s2,0.7,2.8,1.3c1.5,1.1,2.3,2.4,2.5,3.9c0.3,1.5-0.1,2.9-1,4.4
				c-0.7,1.1-1.6,1.9-2.7,2.5c0.2,0.4,0.3,0.8,0.5,1.1c-0.2,0.3-0.4,0.6-0.5,0.9c-0.3-0.6-0.5-1.1-0.8-1.7c-1.7,0.7-3.5,0.5-5.3-0.5
				c-1.6-0.9-2.6-2.2-3-3.8c-0.3-1.7,0-3.5,1.2-5.2c0.7-1.1,1.6-2,2.6-2.5c-0.1-0.3-0.2-0.6-0.3-0.9C37.9,45.4,38.1,45,38.3,44.7z
				 M38.9,44.3c0.1,0,0.2,0,0.3-0.1c0.1,0.3,0.2,0.7,0.3,1c2-0.6,3.8-0.1,5.6,1.3c1.6,1.2,2.4,2.7,2.7,4.4s-0.1,3.3-1.2,4.9
				c-0.6,0.9-1.4,1.7-2.5,2.3c0.2,0.4,0.3,0.8,0.5,1.1c-0.4,0.6-0.7,1.2-1,1.8c0-0.1-0.1-0.2-0.1-0.3c0.3-0.5,0.6-1,0.9-1.5
				c-0.2-0.4-0.3-0.7-0.5-1.1c1.1-0.8,2-1.6,2.5-2.4c1-1.6,1.4-3.2,1.2-4.8s-1.1-3.1-2.6-4.3c-0.8-0.7-1.8-1.1-2.8-1.3
				c-1-0.2-1.9-0.2-2.8,0.2C39.1,45.1,39,44.7,38.9,44.3z M38.3,47.8c-0.9,0.2-1.6,0.8-2.3,1.7c-1.5,2.4-0.6,4.6,2.6,6.4
				c1.3,0.8,2.4,1.2,3.1,1.2c-0.1-0.2-0.2-0.5-0.3-0.8c0,0-0.1,0-0.1-0.1c-0.8-0.3-1.5-0.6-2.1-1c-3-1.8-3.8-3.7-2.5-5.8
				c0.4-0.7,1-1.1,1.7-1.4C38.3,48,38.3,47.9,38.3,47.8z M40.3,48c0.9,2.8,1.9,5.5,3,8.2c0.4,0,0.8-0.1,1.1-0.3c0,0.1,0,0.1,0,0.2
				c-0.5,0.2-0.9,0.4-1.3,0.4c-1.2-2.8-2.2-5.7-3.2-8.6c-0.2-0.1-0.4-0.1-0.7-0.2c1,3.2,2.2,6.3,3.5,9.4c1-0.2,1.8-0.7,2.4-1.7
				c0.6-1,0.7-1.9,0.3-2.9s-1.3-2-2.7-3.1C41.9,48.8,41.1,48.3,40.3,48z M38.4,48.2c-0.5,0.2-1,0.7-1.5,1.3
				c-1.2,1.9-0.4,3.8,2.4,5.5c0.7,0.4,1.4,0.7,1.9,0.9C40.2,53.4,39.3,50.9,38.4,48.2z"/>
			<path d="M40.8,41.7c1.2-1.5,2.4-3,3.7-4.4c-0.1,0.7-0.1,1.4-0.2,2.1c1.4,1.3,2.9,2.5,4.3,3.8c0-0.3,0-0.6,0-0.9
				c-1.3-1.1-2.5-2.2-3.8-3.4c0-0.6,0.1-1.1,0.1-1.7c0.1,0,0.2,0,0.3,0c-0.1,0.5-0.1,1-0.1,1.6c1.2,1,2.3,2.1,3.5,3.1
				c-0.1-1.7-0.1-3.3-0.1-5c0-0.7-0.1-1.2-0.4-1.5c-0.2-0.2-0.4-0.2-0.8-0.2c-0.4,0.1-0.7,0.2-1.1,0.5c0,0-0.1,0-0.1-0.1
				c1.5-1.6,3-3,4.5-4.5c0,0,0,0.1,0.1,0.1c-0.8,1.1-1.3,2.8-1.3,5c0,0.8,0,1.5,0,2.3c2.6,0.5,5.2,1.2,7.7,1.9
				c0.7-0.2,1.3-0.3,2-0.4c-1.3,1.2-2.6,2.5-3.9,3.8c0.1-0.6,0.2-1.1,0.3-1.7c-1.7-0.5-3.5-0.9-5.3-1.3c0.1,0.9,0.1,1.8,0.2,2.6
				c0.7,0.6,1.3,1.2,2,1.8c0.8,0,1.7-0.1,2.5-0.1c-1.2,1.3-2.4,2.7-3.5,4.1c-0.1,0-0.2,0-0.4,0.1c1.1-1.3,2.2-2.6,3.3-3.9
				c-0.7,0-1.3,0-2,0c-0.7-0.7-1.5-1.3-2.2-1.9c-0.1-0.9-0.2-1.9-0.2-2.8c-0.2,0-0.3-0.1-0.5-0.1c0,1.1,0.1,2.2,0.2,3.3
				c0.7,0.7,1.5,1.3,2.2,1.9c0.5-0.1,1.1-0.2,1.6-0.3c-1.1,1.2-2.1,2.5-3.2,3.8c0-0.6,0-1.2,0.1-1.9c-2.6-2.1-5.1-4.2-7.7-6.3
				C42,41.3,41.4,41.5,40.8,41.7z M51.5,31.4c-0.8,0.8-1.3,2-1.4,3.6c-0.1,0.9-0.1,1.8-0.1,2.8c2.6,0.6,5.1,1.3,7.5,2.1
				c1.1-0.2,2.3-0.4,3.4-0.6c-1.6,1.4-3.2,2.9-4.8,4.5c-0.1,0-0.3,0-0.4,0c1.4-1.5,2.8-2.8,4.3-4.2c-0.8,0.1-1.7,0.3-2.6,0.5
				c-2.5-0.8-5.1-1.5-7.8-2.1c0-1,0.1-2,0.1-2.9c0.1-1.5,0.6-2.8,1.4-3.7C51.4,31.3,51.5,31.4,51.5,31.4z"/>
			<path d="M62.4,21.8c0,0.1,0,0.2-0.1,0.2c-0.2,1.1-0.2,2.2,0,3.3c-0.2-0.1-0.2-0.1-0.3-0.2c-0.8-0.4-1.4-0.5-1.9-0.4
				s-1.3,0.5-2.3,1.3c-0.5,0.3-1,0.8-1.6,1.3c0.9,1.1,1.8,2.3,2.7,3.4c0.2-0.2,0.4-0.3,0.6-0.4c-0.8-1-1.6-2-2.4-3
				c0.4-0.4,0.9-0.8,1.3-1.1c0.8-0.6,1.4-0.9,1.9-1.1c0.5-0.1,1-0.1,1.6,0.1c-0.1,0-0.2,0-0.3,0c-0.7,0-1.2,0.1-1.5,0.2
				c-0.3,0.1-0.7,0.4-1.4,0.9c-0.2,0.2-0.5,0.4-1,0.8c-0.1,0.1-0.1,0.1-0.2,0.2c0.7,0.9,1.5,1.9,2.2,2.8c0.5-0.4,1.1-0.8,1.6-1.2
				c0.1-0.7,0.1-1.5,0.2-2.2c0.8,1.1,1.6,2.2,2.4,3.3c-0.7-0.2-1.4-0.3-2.1-0.4c-0.8,0.6-1.6,1.2-2.4,1.8c1.1,1.4,2.2,2.8,3.3,4.2
				c0.2-0.1,0.3-0.3,0.5-0.4c-1-1.3-2-2.6-3-3.8c0.6-0.5,1.2-1,1.9-1.4c0.1,0,0.2,0,0.4,0c-0.6,0.5-1.3,0.9-1.9,1.4
				c0.9,1.2,1.9,2.4,2.8,3.7c1.1-0.9,1.9-1.5,2.2-2c0.4-0.5,0.5-1.1,0.5-1.7c0-0.3,0-0.7,0-1c0,0,0-0.1,0-0.2c0.5,0.5,1,0.8,1.5,1
				c0.4,0.2,1.1,0.4,1.9,0.5c-3.2,2.1-6.2,4.4-9.2,6.9c0.2-0.6,0.3-1.2,0.5-1.9c-0.9-1.1-1.8-2.2-2.7-3.2c-0.4,0.4-0.8,0.9-0.9,1.5
				c-0.1,0-0.2,0-0.2-0.1c0.2-0.5,0.5-1,1-1.6c-0.1-0.1-0.2-0.2-0.3-0.3c-0.1,0.1-0.2,0.1-0.2,0.2c-0.6,0.5-0.9,1.1-1.1,1.9
				c-0.4-1-0.2-1.9,0.8-2.7c-0.9-1-1.7-2.1-2.6-3.1c-0.7,0.1-1.4,0.2-2.1,0.3C55.6,26.7,58.9,24.1,62.4,21.8z M70.5,31
				c0,0.3,0,0.7,0,1c-3.1,2-6,4.2-8.9,6.6c-0.1,0-0.2-0.1-0.3-0.1c2.8-2.4,5.8-4.7,8.9-6.6c0-0.2,0-0.5,0-0.7
				c-1.3-0.2-2.3-0.6-3.2-1.1c0.1,0,0.2-0.1,0.3-0.1c0.8,0.5,1.8,0.8,2.9,1C70.3,31,70.4,31,70.5,31z M62.2,26.6
				c0.8,1.1,1.6,2.3,2.4,3.4c-0.1,0-0.2,0-0.3,0.1c-0.8-1.1-1.6-2.3-2.4-3.4C62,26.6,62.1,26.6,62.2,26.6z M63.2,22.1
				c0,0,0,0.1,0,0.1c-0.2,1.4-0.2,2.4-0.1,3.2c-0.1,0-0.2,0-0.3-0.1c-0.1-1.1-0.1-2.2,0.1-3.3C63,22,63.1,22.1,63.2,22.1z"/>
			<path d="M65.3,21.3c1.1-1.7,2.6-3.1,4.4-4c1.4-0.8,2.8-1.1,4-1c1.2,0.1,2,0.5,2.3,1.3c0.3,0.7,0.3,1.4-0.1,2.2s-1,1.5-1.8,2.3
				c1,0.8,2.1,1.6,3.3,2.3c1.2,0.7,2.3,1.1,3.3,1.4c0,0-0.1,0.1-0.1,0.1c-0.8,0.7-1.4,1.5-2,2.5c0,0.1-0.1,0.1-0.1,0.2
				c-0.1-0.1-0.1-0.2-0.2-0.2c-1.5-2-2.9-3.6-4.5-4.7c0,0-0.1,0-0.1-0.1c-0.3,0.4-0.8,0.8-1.5,1.4c0,0-0.1,0-0.1,0.1
				c0.6,1,1.2,2.1,1.7,3.1c0.8,0.2,1.6,0.5,2.4,0.7c-1.5,0.8-3,1.6-4.5,2.5c-0.1-0.1-0.2-0.1-0.3-0.1c1.4-0.8,2.7-1.6,4.1-2.4
				c-0.7-0.2-1.3-0.4-2-0.6c-0.6-1.1-1.2-2.2-1.9-3.3c0.1,0,0.1-0.1,0.2-0.1c0.7-0.5,1.2-0.9,1.6-1.3c-0.1-0.1-0.1-0.1-0.1-0.1
				c-0.1-0.1-0.2-0.1-0.2-0.2c0,0-0.1,0-0.1-0.1c-0.3,0.3-1,0.8-2,1.5c0,0-0.1,0.1-0.1,0.1c0.7,1.2,1.4,2.4,2.1,3.7
				c0.5,0.1,1,0.3,1.6,0.4c-1.3,0.7-2.6,1.5-3.8,2.2c0.2-0.6,0.3-1.1,0.5-1.7c-0.6-0.9-1.1-1.8-1.6-2.7c0,0-0.1,0-0.1,0.1
				c-0.3,0.3-0.6,0.6-0.8,0.8c0,0,0,0.1-0.1,0.1c-0.1,0-0.1-0.1-0.2-0.1c0.2-0.3,0.4-0.4,0.5-0.6c0.1-0.1,0.3-0.3,0.4-0.4
				c0,0,0,0,0.1-0.1c-0.1-0.1-0.2-0.3-0.2-0.4c-0.4,0.2-0.8,0.6-1.2,1c0,0-0.1,0.1-0.1,0.1c0-0.1-0.1-0.3-0.2-0.6c0,0,0-0.2-0.1-0.4
				c0,0,0-0.1,0-0.1c0.3-0.2,0.5-0.3,0.7-0.4c0.2-0.1,0.3-0.2,0.4-0.3c-0.8-1.3-1.6-2.7-2.4-4C66.2,21.2,65.8,21.3,65.3,21.3
				C65.3,21.3,65.3,21.3,65.3,21.3z M68.1,19.4c0.8,1.5,1.7,3,2.5,4.5c0.2-0.1,0.3-0.2,0.5-0.3c-0.8-1.4-1.5-2.7-2.3-4.1
				c0.3-0.3,0.7-0.6,1.2-0.8c1.3-0.7,2.4-0.8,3.2-0.3c-0.7-0.1-1.2-0.1-1.7,0s-0.9,0.2-1.4,0.5c-0.4,0.2-0.8,0.5-1,0.7
				c0.7,1.3,1.4,2.6,2.2,3.9c0,0,0.1-0.1,0.1-0.1c1.1-0.9,1.9-1.7,2.3-2.4c0.4-0.8,0.4-1.5,0.1-2.2c-0.3-0.6-0.9-1-1.7-1.1
				c-0.8-0.1-1.6,0.1-2.5,0.5C69,18.4,68.5,18.9,68.1,19.4z M75.5,21.9c1,1,2.2,1.8,3.8,2.5c0.9,0.4,2,0.7,3.2,0.9
				c-1.2,0.9-2.3,2.1-3.1,3.3c0,0,0,0.1-0.1,0.1c-0.1,0-0.2,0-0.2-0.1c0.8-1.3,1.8-2.3,2.9-3.2c-2.2-0.4-4.4-1.5-6.7-3.3
				c0,0-0.1-0.1-0.1-0.1c1.6-1.6,2.2-3.1,1.6-4.5c-0.3-0.6-0.8-1.1-1.7-1.5c0.9,0.2,1.6,0.7,2,1.5C77.6,18.9,77.1,20.3,75.5,21.9z"
				/>
			<path d="M89.8,9.6c-0.7,0.6-1.2,1.1-1.3,1.4c-0.2,0.6-0.2,1.3,0.1,2.2c0.1,0.2,0.1,0.4,0.2,0.6c0.8,2.7,1.6,5.3,2.4,8
				c-0.5,0.2-1.1,0.3-1.6,0.5c-2.4-2.3-4.9-4.5-7.5-6.6c0.6,1.6,1.2,3.2,1.8,4.8c0.1,0.1,0.1,0.3,0.1,0.4c0.2,0.4,0.4,0.8,0.6,1.2
				c0.3,0.6,0.8,0.9,1.3,1c0,0,0.1,0,0.1,0c-1,0-1.7-0.7-2.3-2.1c-0.1-0.3-0.2-0.6-0.3-0.8c-0.6-1.6-1.2-3.2-1.9-4.8
				c-0.3-0.2-0.6-0.5-0.9-0.7c0.7,1.7,1.3,3.4,2,5.1c0.6,1.6,1.2,2.6,1.6,3c0.4,0.4,1.1,0.6,2,0.5c0.4,0.2,0.7,0.4,1.1,0.5
				c-1.7,0.6-3.3,1.2-5,1.9c-0.1-0.1-0.2-0.1-0.2-0.2c1.5-0.7,3.1-1.2,4.6-1.8c-0.2-0.1-0.4-0.2-0.7-0.3c-1.4,0.5-2.9,1.1-4.3,1.7
				c0.6-0.6,1-1.1,1.1-1.7c0.1-0.5-0.1-1.3-0.5-2.4c-0.9-2.3-1.9-4.7-2.8-7c-0.6-0.1-1.2-0.3-1.8-0.4c1.8-0.7,3.6-1.4,5.4-2.1
				c-0.4,0.5-0.8,0.9-1.2,1.4c2.8,2.2,5.4,4.5,7.8,6.8c-0.1-0.4-0.2-0.7-0.3-1.1c-2.1-2-4.3-4-6.7-5.9c0.4-0.5,0.8-0.9,1.2-1.4
				c0.1,0,0.2,0.1,0.3,0.1c-0.4,0.4-0.7,0.8-1.1,1.2c2.1,1.8,4.2,3.6,6.1,5.4c-0.4-1.4-0.9-2.8-1.3-4.2c-0.1-0.2-0.1-0.3-0.2-0.5
				c-0.3-1-0.6-1.7-0.9-2s-0.9-0.5-1.8-0.5C86.5,10.5,88.2,10,89.8,9.6z M90.4,10.2c0,0.1-0.1,0.2-0.1,0.3c-0.5,0.3-0.8,0.6-1,0.9
				s-0.1,0.9,0.1,1.6c0.9,3.1,1.8,6.3,2.7,9.4c-0.7,0.2-1.3,0.4-2,0.6c-0.1-0.1-0.1-0.1-0.2-0.2c0.6-0.2,1.3-0.4,1.9-0.6
				c-0.9-3-1.7-6-2.6-9.1c-0.2-0.9-0.3-1.5-0.1-1.9C89.2,10.8,89.7,10.5,90.4,10.2z"/>
			<path d="M97,9.3c1.6-1.3,3.5-2.1,5.7-2.4c1.6-0.2,3,0,4,0.5c1.1,0.5,1.6,1.3,1.7,2.2c0.1,1.3-0.7,2.2-2.3,2.8c0,0,0,0.1,0,0.1
				c0.2,0,0.4,0.1,0.6,0.1c0.8-0.2,1.4-0.6,1.8-1.1s0.6-1.2,0.6-1.9c-0.1-0.9-0.5-1.7-1.4-2.3c0,0,0,0,0-0.1c0,0,0.1,0,0.1,0.1
				c1,0.6,1.5,1.4,1.6,2.4c0.1,1.4-0.7,2.4-2.2,3c0.7,0.2,1.3,0.6,1.7,1.1c0.4,0.5,0.6,1.1,0.7,1.7c0.1,0.9-0.3,1.7-0.9,2.3
				c-0.7,0.6-1.6,1-2.8,1.1c-2.3,0.2-4.7,0.6-7,1c0.4-0.5,0.8-0.9,1.2-1.3c-0.2-1.3-0.5-2.7-0.7-4c-0.4,0.1-0.9,0.2-1.4,0.4
				c0-0.1-0.1-0.2-0.1-0.2c0.6-0.2,1.1-0.3,1.5-0.4c0-0.2-0.1-0.3-0.1-0.5c-0.1,0-0.2,0-0.3,0c-0.4,0.1-0.9,0.2-1.5,0.3
				c0.1-0.3,0.2-0.7,0.3-1c0.1,0,0.1,0,0.2,0c0.3,0,0.5-0.1,0.6-0.1c0.2,0,0.4-0.1,0.5-0.1c-0.2-1.2-0.4-2.3-0.6-3.5
				C97.9,9.5,97.5,9.4,97,9.3z M109.1,13.4c0.8,0.5,1.2,1.3,1.2,2.3s-0.3,2-1.1,2.7c-0.7,0.7-1.8,1.1-3.3,1.3
				c-2.2,0.2-4.4,0.5-6.6,0.9c-0.1-0.1-0.1-0.2-0.2-0.2c2-0.4,4.1-0.7,6.1-0.9c1.3-0.1,2.3-0.3,2.9-0.7c1.3-0.7,1.9-1.7,1.8-3.2
				c0-0.8-0.4-1.5-1.1-2.2C109.1,13.5,109.1,13.5,109.1,13.4z M100.5,8.6c0.2,1.4,0.4,2.8,0.6,4.2c0.1,0,0.1,0,0.2,0
				c0.1,0,0.1,0,0.2,0c0,0,0.1,0,0.2,0c-0.2-1.3-0.4-2.6-0.6-3.8c0.6-0.3,1.2-0.5,1.8-0.6c0.7-0.1,1.3,0,1.7,0.1
				c0.4,0.2,0.8,0.5,1.1,1c-0.1,0-0.2-0.1-0.3-0.1c-0.6-0.7-1.4-0.9-2.5-0.8c-0.6,0.1-1.1,0.3-1.5,0.6c0.2,1.2,0.3,2.4,0.5,3.6
				c0.2,0,0.3,0,0.4-0.1c1.3-0.2,2.3-0.5,3-1s0.9-1.1,0.8-1.9c-0.1-0.7-0.4-1.3-1-1.7c-0.6-0.4-1.4-0.5-2.3-0.4
				C102,7.8,101.2,8.1,100.5,8.6z M101.2,13.6c0.3,1.7,0.5,3.5,0.8,5.2c0.2,0,0.3,0,0.5-0.1c-0.2-1.5-0.4-3.1-0.7-4.6
				c0.5-0.1,0.8-0.2,1.1-0.2c1.2-0.2,2-0.1,2.5,0c0.5,0.1,1,0.5,1.3,1c0,0-0.1,0-0.1,0c-0.4-0.4-0.8-0.7-1.4-0.8s-1.3-0.1-2.3,0
				c-0.3,0-0.6,0.1-0.8,0.1c0.2,1.5,0.4,2.9,0.6,4.4c0.1,0,0.2,0,0.3,0c0.5-0.1,0.9-0.2,1.4-0.2c1.8-0.3,2.7-1.3,2.6-2.9
				c-0.1-1-0.5-1.7-1.2-2c-0.7-0.3-1.9-0.4-3.7-0.1C102,13.4,101.7,13.5,101.2,13.6z"/>
			<path d="M121.9,6.7c-0.4,0.3-0.8,0.7-1.2,1c0.5,1.4,1,2.8,1.5,4.3c0.1-0.1,0.3-0.1,0.4-0.2c-0.4-1.3-0.9-2.6-1.3-3.9
				c0.4-0.4,0.9-0.7,1.3-1.1c0.1,0,0.2,0.1,0.3,0.1c-0.4,0.3-0.8,0.7-1.2,1c0.4,1.2,0.8,2.4,1.2,3.7c0.1,0,0.1-0.1,0.2-0.1
				c0.1-0.1,0.2-0.2,0.4-0.2c0.2-0.1,0.4-0.2,0.4-0.3c0.1,0.7,0.3,1.4,0.6,2c-0.2,0-0.4-0.1-0.4-0.1c-0.7-0.1-1.2,0-1.5,0.1
				c0.5,1.6,0.9,3.2,1.4,4.8c0.4,0.4,0.9,0.8,1.3,1.3c-1.6-0.2-3.3-0.4-5-0.5c0.5-0.3,1-0.7,1.5-1c-0.3-1-0.6-1.9-0.9-2.8
				c-0.8,0.6-1.4,1.3-1.9,1.9c-0.1,0-0.1,0-0.2-0.1c0.4-0.6,1.1-1.3,1.9-2c0,0,0.1-0.1,0.1-0.1c-0.1-0.1-0.1-0.3-0.2-0.4
				c-0.9,0.6-1.6,1.2-2.1,2.1c-0.1-0.1-0.1-0.2-0.2-0.3c-0.3-0.5-0.8-1.2-1.3-1.8c0,0-0.1-0.1-0.1-0.1c-0.6,1.1-0.8,1.9-0.9,2.6
				c0,0.4,0.1,0.7,0.2,1c0.1,0.3,0.5,0.8,1,1.4c0,0.1,0.1,0.2,0.2,0.3c-1.8-0.1-3.5-0.1-5.3,0c-0.1-0.1-0.1-0.2-0.2-0.2
				c1.7,0,3.3,0,5,0c-0.1-0.1-0.1-0.1-0.2-0.2c-0.4-0.5-0.7-0.9-0.8-1.2c-0.1-0.3-0.2-0.6-0.2-1c0-0.6,0.3-1.6,0.9-2.9
				c-0.1-0.2-0.3-0.3-0.4-0.5c-0.1,0.2-0.2,0.5-0.4,0.9c-0.1,0.3-0.2,0.6-0.4,1c-0.2,0.5-0.3,1-0.3,1.3c0,0.3,0.1,0.7,0.2,0.9
				s0.4,0.6,0.8,1c0,0,0.1,0.1,0.2,0.2c-1.6,0-3.3,0-4.9,0c0.9-0.5,1.7-1.1,2.2-1.9c0.6-0.8,1.1-2,1.7-3.7c0,0,0-0.1,0-0.1
				c-0.4-0.3-0.9-0.5-1.6-0.5c0.4-0.5,0.7-1.1,0.9-1.6c0.1,0.1,0.2,0.1,0.2,0.2c0.2,0.1,0.3,0.3,0.5,0.4c0.2,0.1,0.4,0.3,0.6,0.4
				c0.1-0.1,0.1-0.3,0.2-0.4c0,0-0.1-0.1-0.1-0.1c-0.4-0.3-0.6-0.5-0.9-0.7c0,0-0.1,0-0.1-0.1c0.1-0.1,0.1-0.1,0.2-0.2
				c0.4,0.2,0.8,0.5,1.1,0.8c0.5-1.2,1.1-2.3,1.6-3.5c-0.4-0.4-0.8-0.8-1.2-1.1C118.4,6.5,120.1,6.6,121.9,6.7z M118.5,8.5
				c-0.6,1.3-1.3,2.6-1.9,3.9c0.5,0.5,1,1,1.3,1.5c0.1,0.2,0.3,0.4,0.4,0.6c0,0,0,0,0.1,0.1c0.1,0,0.1-0.1,0.1-0.1
				c0.1,0,0.1-0.1,0.1-0.2c0,0,0.1-0.1,0.1-0.1c-0.4-0.7-1-1.3-1.6-1.9c0.5-1,1-2.1,1.5-3.2C118.7,8.9,118.6,8.7,118.5,8.5z
				 M118.9,9.6c-0.4,0.9-0.9,1.8-1.3,2.7c0.1,0.1,0.1,0.1,0.1,0.1c0.1,0.2,0.3,0.3,0.4,0.5c0.2,0.2,0.5,0.6,0.8,1.1
				c0,0,0.1,0.1,0.1,0.2c0.3-0.3,0.7-0.6,1.1-1C119.8,12,119.4,10.8,118.9,9.6z M124.7,11.7c0.1,0.6,0.4,1.4,0.9,2.5
				c-0.1,0-0.2-0.1-0.3-0.1c-0.3-0.1-0.6-0.1-0.8-0.2c-0.4-0.1-0.7-0.1-0.8-0.1c0,0-0.1,0-0.2,0c0.4,1.5,0.8,2.9,1.2,4.4
				c0.7,0.7,1.3,1.4,1.9,2.2c-1.9-0.3-3.7-0.5-5.6-0.7c-0.1-0.1-0.1-0.2-0.2-0.3c1.7,0.1,3.5,0.3,5.2,0.6c-0.5-0.6-1-1.2-1.6-1.7
				c-0.4-1.5-0.9-3.1-1.3-4.6c0.2,0,0.5,0,0.8,0c0.4,0,0.8,0.1,1.2,0.2c0-0.1-0.1-0.2-0.1-0.2c-0.4-0.8-0.6-1.5-0.7-2.1
				C124.5,11.5,124.6,11.6,124.7,11.7z"/>
			<path d="M139.3,9.8c-0.5,0.3-0.9,0.7-1.3,1.1c-0.7,0.8-1.1,1.3-1.3,1.5c0,0,0,0-0.1,0c0-0.1,0-0.1,0-0.2c-0.1-0.6-0.1-1-0.2-1.3
				c-0.1-0.2-0.2-0.5-0.4-0.8c-0.5-0.7-1.2-1.1-2.1-1.3c-0.8-0.2-1.5-0.1-2.1,0.2c-0.6,0.3-0.9,0.7-1,1.2c-0.2,1,0.6,1.9,2.3,2.7
				c0.6,0.2,1.1,0.5,1.7,0.8c2.4,1.1,3.3,2.7,2.8,4.4c-0.3,1-0.9,1.7-1.9,2.2c-1,0.5-2,0.6-3.2,0.3c-0.7-0.2-1.5-0.4-2.4-0.8
				c-0.4-0.2-0.7-0.3-1.1-0.5c-0.4-0.2-0.8-0.3-1.1-0.3c-0.4-0.1-0.8,0-1.3,0.2c0,0,0-0.1-0.1-0.1c1-1,1.8-2.1,2.3-3.1
				c0.1,0,0.1,0,0.2,0.1c0,1,0.3,1.8,0.9,2.5c0.6,0.7,1.4,1.1,2.5,1.3c0.9,0.2,1.6,0.2,2.2-0.1s1-0.7,1.2-1.3c0.2-0.7,0-1.5-0.6-2.1
				c-0.4-0.5-1.5-1.1-3.1-1.7c-1.3-0.5-2.1-1-2.6-1.7s-0.7-1.4-0.5-2.4c0.2-1,0.7-1.7,1.6-2.2c0.9-0.5,2.1-0.6,3.5-0.3
				c0.9,0.2,1.9,0.5,2.9,1.1c0.5,0.2,0.9,0.4,1.1,0.5c0.4,0.1,0.8,0.1,1.3,0C139.2,9.8,139.3,9.8,139.3,9.8z M137.7,15.7
				c0.8,0.9,1,1.9,0.6,3c-0.3,1.2-1.1,2-2.3,2.5c-1.2,0.6-2.4,0.7-3.8,0.4c-0.7-0.2-1.3-0.3-1.8-0.6c-0.5-0.2-1-0.4-1.5-0.7
				c-0.4-0.2-0.7-0.3-1.1-0.3c-0.4-0.1-0.7,0-1.1,0c0-0.1-0.1-0.2-0.1-0.3c0.4-0.1,0.7-0.1,1.1-0.1c0.4,0.1,0.8,0.2,1.3,0.4
				c0.5,0.2,0.9,0.4,1.4,0.6c0.6,0.2,1.2,0.5,1.8,0.6c1.3,0.3,2.4,0.2,3.6-0.4c1.1-0.5,1.9-1.3,2.2-2.4
				C138.4,17.6,138.2,16.6,137.7,15.7C137.7,15.7,137.7,15.7,137.7,15.7z M129.1,13.4c0.1,0.1,0.2,0.2,0.3,0.2
				c0.2,0.4,0.8,0.8,1.8,1.3c0.5,0.2,1.1,0.5,1.6,0.7c1.1,0.5,1.8,0.9,2.1,1.2s0.5,0.6,0.6,1c0,0-0.1,0-0.1,0
				c-0.2-0.4-0.5-0.7-0.8-0.9c-0.3-0.2-0.9-0.6-1.9-1c-1.4-0.6-2.4-1.1-2.8-1.4C129.4,14.2,129.1,13.9,129.1,13.4z M129.8,16.7
				c0,1.2,0.6,2.1,1.5,2.8c0,0,0,0,0,0.1c-1.1-0.6-1.7-1.5-1.8-2.8C129.6,16.7,129.7,16.7,129.8,16.7z M136.2,11.4
				c-0.6-0.9-1.4-1.5-2.3-1.7c-0.6-0.1-1.1-0.1-1.5,0.1c-0.4,0.2-0.7,0.5-0.8,0.9c-0.1,0.5,0.2,1,0.8,1.6c0,0,0.1,0,0.1,0.1
				c0,0-0.1,0-0.1,0.1c-0.9-0.5-1.2-1.2-1.1-1.9c0.1-0.5,0.4-0.8,0.8-1.1c0.5-0.2,1-0.3,1.7-0.1c0.6,0.1,1.2,0.4,1.6,0.7
				C135.9,10.5,136.2,10.9,136.2,11.4C136.3,11.4,136.3,11.4,136.2,11.4z M139.9,10.4c-0.1,0-0.1,0.1-0.1,0.1
				c-0.4,0.3-0.8,0.7-1.1,1c-0.8,0.8-1.2,1.2-1.2,1.3c0,0-0.1,0-0.1,0c-0.1,0-0.1-0.1-0.2-0.2c0,0,0,0,0.1-0.1
				c0.3-0.3,0.8-0.8,1.3-1.3c0.4-0.3,0.7-0.7,1.1-1c0,0,0.1,0,0.1-0.1C139.7,10.3,139.8,10.3,139.9,10.4z"/>
			<path d="M141.6,10.4c1.7,0.5,3.4,1.1,5.1,1.7c-0.6,0.2-1.3,0.4-1.9,0.7c-0.6,1.8-1.2,3.6-1.9,5.4c0.2-0.1,0.5-0.2,0.8-0.4
				c0.6-1.6,1.1-3.2,1.7-4.8c0.5-0.2,1-0.4,1.6-0.5c0,0.1,0.1,0.2,0.1,0.2c-0.5,0.2-0.9,0.3-1.4,0.5c-0.5,1.5-1,2.9-1.6,4.4
				c1.4-0.7,2.9-1.4,4.4-2.1c0.6-0.3,1.1-0.6,1.2-1c0.1-0.2,0.1-0.5-0.1-0.8c-0.2-0.3-0.5-0.6-0.8-0.8c0,0,0-0.1,0-0.1
				c1.9,0.7,3.7,1.5,5.6,2.4c0,0,0,0.1,0,0.1c-1.3-0.3-3-0.1-4.9,0.8c-0.7,0.3-1.4,0.6-2,0.9c0.4,2.6,0.7,5.2,0.9,7.8
				c0.4,0.5,0.8,1.1,1.1,1.6c-1.6-0.7-3.1-1.4-4.8-2c0.5-0.1,1-0.2,1.6-0.4c-0.2-1.8-0.4-3.5-0.6-5.3c-0.8,0.4-1.5,0.8-2.3,1.2
				c-0.3,0.8-0.6,1.7-0.9,2.6c0.3,0.8,0.6,1.5,0.9,2.3c-1.6-0.6-3.2-1.1-4.8-1.6c-0.1-0.1-0.1-0.2-0.2-0.3c1.5,0.5,3,1,4.5,1.5
				c-0.2-0.6-0.5-1.2-0.7-1.8c0.3-0.9,0.7-1.8,1-2.8c0.8-0.4,1.6-0.9,2.4-1.3c0-0.2-0.1-0.3-0.1-0.5c-1,0.5-1.9,1-2.9,1.5
				c-0.3,0.9-0.6,1.9-1,2.8c0.3,0.5,0.5,0.9,0.8,1.4c-1.4-0.5-2.9-1-4.3-1.4c0.5-0.2,1.1-0.4,1.6-0.7c1-3.2,2-6.3,3-9.5
				C142.3,11.4,141.9,10.9,141.6,10.4z M154.4,16.2c-1-0.4-2.3-0.4-3.7,0.1c-0.8,0.3-1.7,0.6-2.5,1c0.3,2.6,0.6,5.1,0.7,7.7
				c0.6,0.9,1.2,1.9,1.8,2.8c-1.9-0.9-3.8-1.8-5.7-2.6c-0.1-0.1-0.1-0.2-0.2-0.3c1.8,0.7,3.5,1.5,5.3,2.3c-0.4-0.7-0.9-1.4-1.4-2.2
				c-0.2-2.6-0.4-5.3-0.8-7.9c0.9-0.4,1.8-0.7,2.7-1.1c1.4-0.5,2.7-0.6,3.8-0.2C154.3,16,154.4,16.1,154.4,16.2z"/>
			<path d="M167.1,22.4c-0.1,0-0.2,0-0.3,0c-1.1,0.2-2.1,0.6-3.1,1.3c0-0.2,0-0.3,0-0.4c0.1-0.9-0.1-1.5-0.4-2c-0.3-0.4-1-1-2.1-1.6
				c-0.5-0.3-1.1-0.6-1.8-1c-0.7,1.3-1.4,2.5-2.1,3.8c0.2,0.1,0.4,0.2,0.6,0.3c0.6-1.1,1.3-2.2,1.9-3.4c0.5,0.2,1,0.5,1.5,0.8
				c0.8,0.5,1.4,0.9,1.7,1.3c0.3,0.4,0.5,0.9,0.5,1.5c-0.1-0.1-0.1-0.2-0.1-0.2c-0.3-0.7-0.6-1.1-0.8-1.3c-0.2-0.2-0.6-0.5-1.3-0.9
				c-0.2-0.1-0.6-0.3-1.1-0.6c-0.1,0-0.1-0.1-0.2-0.1c-0.6,1-1.2,2.1-1.8,3.1c0.6,0.3,1.2,0.7,1.7,1c0.7-0.2,1.4-0.5,2.1-0.7
				c-0.7,1.2-1.4,2.3-2.2,3.5c-0.1-0.7-0.2-1.4-0.4-2.1c-0.9-0.5-1.7-1-2.6-1.5c-0.9,1.6-1.7,3.1-2.6,4.7c0.2,0.1,0.4,0.2,0.6,0.3
				c0.8-1.4,1.6-2.8,2.4-4.2c0.7,0.4,1.4,0.8,2,1.2c0,0.1,0.1,0.2,0.1,0.4c-0.7-0.4-1.4-0.8-2-1.2c-0.8,1.3-1.5,2.7-2.3,4
				c1.2,0.7,2.1,1.1,2.7,1.3c0.6,0.2,1.2,0.1,1.8-0.2c0.3-0.1,0.6-0.3,0.9-0.4c0,0,0.1-0.1,0.2-0.1c-0.2,0.7-0.4,1.3-0.4,1.8
				c0,0.5,0.1,1.1,0.3,1.9c-3.1-2.2-6.4-4.1-9.8-5.7c0.6-0.1,1.2-0.2,1.9-0.3c0.6-1.2,1.3-2.5,2-3.8c-0.6-0.2-1.1-0.3-1.7-0.3
				c0-0.1,0-0.2,0-0.2c0.5-0.1,1.1,0.1,1.8,0.3c0.1-0.1,0.1-0.3,0.2-0.4c-0.1-0.1-0.2-0.1-0.2-0.1c-0.6-0.3-1.4-0.4-2.1-0.3
				c0.7-0.8,1.6-0.9,2.7-0.3c0.6-1.2,1.2-2.4,1.9-3.6c-0.3-0.6-0.7-1.2-1-1.8C160.1,18,163.6,20.1,167.1,22.4z M161.7,33.4
				c-0.3,0.1-0.6,0.3-0.9,0.4c-3-2.1-6.1-4-9.4-5.6c0-0.1,0-0.2,0-0.3c3.2,1.7,6.4,3.5,9.4,5.6c0.2-0.1,0.4-0.2,0.6-0.3
				c-0.3-1.2-0.4-2.4-0.2-3.4c0.1,0.1,0.1,0.2,0.2,0.3c-0.1,0.9-0.1,1.9,0.2,3.1C161.7,33.3,161.7,33.4,161.7,33.4z M162.6,24.1
				c-0.8,1.2-1.5,2.4-2.2,3.6c-0.1-0.1-0.1-0.2-0.2-0.2c0.7-1.2,1.5-2.4,2.2-3.6C162.5,23.9,162.6,24,162.6,24.1z M167.2,23.3
				c0,0-0.1,0-0.1,0c-1.4,0.3-2.4,0.7-3,1.1c0-0.1,0-0.2-0.1-0.3c1-0.6,2-0.9,3.1-1.2C167.2,23.1,167.2,23.2,167.2,23.3z"/>
			<path d="M179.1,32.1c-0.1,0-0.2,0.1-0.2,0.1c-0.5,0.1-0.9,0.2-1.4,0.3c-0.5,0.1-1,0.3-1.6,0.6c0,0,0,0-0.1,0c0,0,0-0.1,0-0.1
				c0,0,0-0.1,0.1-0.1c0.3-0.7,0.4-1.3,0.3-1.8c-0.1-0.5-0.5-1-1.2-1.6c-0.3-0.2-0.5-0.4-0.8-0.7c0,0-0.1-0.1-0.1-0.1
				c-2.2,2.6-4.4,5.3-6.6,7.9c0.1,0.5,0.2,1.1,0.3,1.6c-1.2-1-2.4-2-3.6-3c0.6,0,1.2,0,1.8,0c1.9-2.5,3.9-4.9,5.9-7.4
				c-0.2-0.2-0.4-0.3-0.6-0.5c-0.6-0.5-1.2-0.7-1.6-0.7c-0.4,0-0.9,0.2-1.3,0.7c-0.1-0.1-0.2-0.1-0.2-0.2c0.5-0.6,1-0.8,1.5-0.8
				c0.5,0,1.1,0.2,1.8,0.8c0.2,0.2,0.4,0.3,0.5,0.4c0,0,0.1,0.1,0.1,0.1c0.1-0.1,0.2-0.2,0.3-0.4c-0.3-0.3-0.6-0.5-0.9-0.7
				c-0.8-0.6-1.5-0.9-2-0.9s-1.1,0.3-1.6,0.9c0,0-0.1-0.1-0.1-0.1c0.2-0.9,0.4-2,0.4-3.3c0,0,0-0.1,0-0.1
				C171.9,25.8,175.6,28.8,179.1,32.1z M175.9,32c-0.2-0.6-0.6-1.2-1.3-1.8c-0.1-0.1-0.3-0.2-0.4-0.3c-2.1,2.4-4.1,4.9-6.1,7.3
				c0,0.8,0.1,1.6,0.1,2.4c-1.3-1.2-2.6-2.3-4-3.3c0-0.1,0-0.2,0-0.3c1.3,1,2.6,2,3.8,3.1c0-0.7-0.1-1.3-0.1-2
				c2.1-2.5,4.2-5.1,6.4-7.6c0.2,0.1,0.3,0.3,0.5,0.4c0.6,0.5,0.9,0.9,1.1,1.2C175.9,31.3,176,31.6,175.9,32z M179.2,33
				c-0.8,0-1.8,0.3-3.1,0.8c0,0-0.1,0-0.1,0c0-0.1,0-0.2-0.1-0.3c0,0,0.1,0,0.1,0c1.3-0.6,2.3-0.8,3.1-0.8c0,0,0.1,0,0.1,0
				C179.2,32.8,179.2,32.9,179.2,33z"/>
			<path d="M184,37.1c1.3,1.4,2.5,2.9,3.8,4.4c-0.7-0.2-1.4-0.3-2-0.5c-2.5,2.1-5.1,4.2-7.6,6.3c0,0.6,0.1,1.1,0.1,1.7
				c-1-1.3-2.1-2.6-3.2-3.8c0.6,0.1,1.2,0.2,1.8,0.4c2.5-2.2,5-4.3,7.4-6.5C184.1,38.5,184.1,37.8,184,37.1z M187.6,42.3
				c-0.5-0.1-1-0.3-1.5-0.4c-2.5,2-5,4.1-7.5,6.1c-0.1,0.8-0.2,1.7-0.3,2.5c-1.1-1.5-2.3-2.9-3.5-4.2c0-0.1,0-0.2,0-0.4
				c1.1,1.3,2.2,2.6,3.3,4c0.1-0.7,0.1-1.4,0.2-2.1c2.5-2.1,5.1-4.2,7.6-6.2c0.6,0.1,1.1,0.3,1.7,0.4
				C187.6,42.1,187.6,42.2,187.6,42.3z"/>
			<path d="M188.9,43c1.2,1.6,2.4,3.2,3.5,4.9c-0.7-0.2-1.4-0.5-2.1-0.7c-2.8,1.9-5.5,3.9-8.3,5.8c0,0,0,0.1,0.1,0.1
				c0.1,0.1,0.1,0.2,0.2,0.3c0,0,0,0.1,0.1,0.1c2.8-1.9,5.5-3.8,8.3-5.7c0.5,0.2,1.1,0.3,1.6,0.5c0,0.1-0.1,0.2-0.1,0.3
				c-0.5-0.2-1-0.3-1.4-0.5c-2.7,1.9-5.5,3.8-8.2,5.6c0.2,0.3,0.3,0.6,0.5,0.8c0.6,1,1.3,1.6,2,1.9c0.7,0.3,1.6,0.3,2.5-0.1
				c-1.1,1.5-1.8,2.7-1.9,3.7c-1.9-3.4-4.1-6.6-6.3-9.6c0.6,0.2,1.2,0.4,1.8,0.6c2.6-2,5.3-3.9,7.9-5.9
				C188.9,44.4,188.9,43.7,188.9,43z M186.2,61c-0.3,0-0.7,0-1,0c-1.9-3.4-4-6.6-6.2-9.6c0-0.1,0-0.2,0-0.4c2.3,3,4.4,6.3,6.3,9.7
				c0.2,0,0.4,0,0.7,0c0.3-1.1,0.8-2.2,1.5-3.2c0,0,0-0.1,0.1-0.1c0,0.1,0.1,0.2,0.1,0.4c0,0.1-0.1,0.1-0.1,0.2
				c-0.6,0.9-1,1.9-1.4,2.9C186.2,60.9,186.2,61,186.2,61z"/>
		</g>
	</g>
</g>
</svg>
